<?xml version="1.0" encoding="utf-8"?>
<!-- Generator: Adobe Illustrator 21.1.0, SVG Export Plug-In . SVG Version: 6.00 Build 0)  -->
<svg viewBox="0 0 48 48" width="100%" height="100%">    <path fill="#FFFFFF" d="M35.3,24.1c0,6.3-5,11.3-11.1,11.3s-11.1-5.1-11.1-11.3s5-11.3,11.1-11.3S35.3,17.8,35.3,24.1"></path>    <path fill="#ED3526" d="M42.8,8.8c-1.4-2-2.6-3.3-4.4-4.7l0,0l0,0l-4.9,5.7c-0.2,0.1-0.3,0.7-0.4,1c0,0.3,0,0.5,0,0.7        c0,0.3,0,0.5,0,0.8v0.1c0,0.2-0.1,0.4-0.2,0.7L31.8,14c0.4,0.3,0.8,0.6,1.1,1c0.4-0.3,0.9-0.8,0.9-0.9H34c0.2-0.1,0.4-0.1,0.6-0.1        c0.3,0,0.5,0,0.8,0c0.2,0,0.4,0,0.7,0.1c0.3,0,0.9-0.2,1-0.3L42.8,8.8L42.8,8.8z"></path>    <path fill="#ED3526" d="M12.7,14.1c0.3,0,0.5,0,0.8,0h0.1c0.2,0,0.4,0.1,0.6,0.2c0,0,0.5,0.5,0.9,0.9c0.3-0.3,0.7-0.7,1.1-1        c-0.3-0.3-1-1-1-1L15.1,13c-0.1-0.2-0.1-0.4-0.2-0.6c0-0.1,0-0.3,0-0.4c0-0.1,0-0.3,0-0.4c0-0.2,0-0.4,0-0.6l0,0        c0-0.3-0.2-0.9-0.3-1L9.7,4.4l0,0C7.9,5.7,6.6,7,5.2,8.9l0,0l5.8,4.9c0.1,0.2,0.7,0.3,1,0.3C12.3,14.1,12.5,14.1,12.7,14.1"></path>    <path fill="#ED3526" d="M41.5,27.7v-0.1V27.7c-0.1,0-1.1,2.2-4.8,4.9h-0.1c0,0,1.5,0.4,1.6,0.4c-0.5,0.8-0.8,1.3-1.5,2.1        c-0.3,0.3-0.5,0.6-0.8,0.9l-2.8-3.1c-0.3,0.3-0.6,0.6-1,0.9L35,37c-0.7,0.8-1.6,1.4-2.8,2L32,39.3c-1,0.5-1.7,0.9-3,1h-0.1        c-0.6,0-1.1,0-1.7-0.2c-0.7-0.3-1.1-0.6-1.5-1.2c-0.2-0.3-0.2-0.8-0.2-1.2c0-0.3,0-0.7-0.1-0.9c-0.4,0-0.8,0.1-1.2,0.1        c-0.4,0-0.9,0-1.3-0.1c-0.1,0.2-0.1,0.4-0.1,0.7c0,0.1,0,0.2,0,0.3s0,0.2,0,0.3c0,0.3,0,0.6-0.2,0.9c-0.5,0.6-0.8,1-1.5,1.2        c-0.6,0.2-1,0.2-1.7,0.2h-0.1c-1.2,0-2-0.4-3-1l-0.4-0.2c-1-0.5-1.8-1.1-2.5-1.7l3-3.3c-0.3-0.3-0.7-0.6-1-0.9l0,0l-2.9,3.2        c-0.3-0.4-0.7-0.8-1-1.2c-0.6-0.8-1-1.2-1.5-2.1c0.1,0,1.6-0.4,1.6-0.4h-0.1c-3.7-2.7-4.7-4.9-4.7-4.9v-0.1v0.1c0,0.1-1.3,5,0.5,8.1        v0.1c0,0,0.8-1.3,0.9-1.4c0.8,1.4,1.3,2.1,2.3,3.3c0.1,0.1,0.2,0.3,0.3,0.4L8,41.6l0,0c0,0,0,0.5,0.3,0.7c0.2,0.2,0.4,0.2,0.7,0.2        l0,0l2.7-3c1.3,1.4,2.4,2.5,4.4,3.6c1.5,0.8,2.5,1.1,4.2,1.6c0.2,0.1,0.4,0.1,0.6,0.1c0.3,0,0.6,0.1,0.9,0.2        c0.7,0.3,1.1,0.7,1.5,1.3c0.5,0.6,0.6,1.1,0.8,1.8v0.1v-0.1c0.2-0.8,0.4-1.2,0.8-1.8c0.5-0.6,0.8-0.9,1.5-1.3        c0.3-0.2,0.6-0.2,0.9-0.2c0.2,0,0.4-0.1,0.6-0.1c1.7-0.5,2.7-0.8,4.2-1.6c2.2-1.2,3.3-2.3,4.7-3.9l2.7,3.1l0,0c0.3,0,0.5,0,0.7-0.2        c0.3-0.3,0.3-0.7,0.3-0.7l0,0l-2.9-3.2c0,0,0,0,0.1-0.1c1-1.2,1.5-2,2.3-3.3c0.1,0.1,0.9,1.4,0.9,1.4v-0.1        C42.8,32.7,41.5,27.7,41.5,27.7"></path>    <path fill="#FFFFFF" d="M15.3,14.1C14.8,13.7,14,13,14,13s-0.5-0.7-1.4,0.2c0.3-0.3,0.5-0.9,0.1-1.5L10.2,9l2.6,2.5        c0.6,0.5,1.2,0.2,1.5-0.1c-0.9,0.9-0.2,1.4-0.2,1.4S14.9,13.6,15.3,14.1"></path>    <path fill="#FFFFFF" d="M6.1,8.7l5.4,4.5c0.3,0.2,0.8,0.3,0.8,0.3s-0.5,0.1-0.9-0.1c0,0-5.4-4.5-5.4-4.4L6.1,8.7z"></path>    <path fill="#FFFFFF" d="M32.8,14.1c0.5-0.5,1.2-1.3,1.2-1.3s0.7-0.5-0.1-1.4c0.3,0.3,0.9,0.6,1.5,0.1L38.1,9l-2.5,2.6        c-0.5,0.6-0.2,1.2,0,1.5c-0.8-0.9-1.4-0.2-1.4-0.2S33.4,13.6,32.8,14.1"></path>    <path fill="#FFFFFF" d="M38.4,5l-4.6,5.3c-0.2,0.3-0.3,0.8-0.3,0.8s-0.1-0.5,0.2-0.9c0,0,4.6-5.4,4.5-5.4L38.4,5z"></path>    <path fill="#ED3526" d="M19.7,9V7C20.9,6.1,23,5.6,23,5.6c-1-0.5-1.7-1.4-1.7-2.6c0-1.6,1.3-2.9,2.9-2.9s2.9,1.3,2.9,2.9        c0,1.2-0.6,2.2-1.6,2.6c0,0,2.2,0.4,3.3,1.4v2c0,0-0.9,0.9-2.8,1.1c-0.2,0-0.4,1-0.5,1.4c-0.4,0-0.9-0.1-1.3-0.1c-0.5,0-1,0-1.4,0.1        c0.1-0.5-0.1-1.5-0.3-1.5C20.6,9.9,19.7,9,19.7,9 M22.9,2.9c0,0.8,0.7,1.5,1.5,1.5s1.5-0.7,1.5-1.5s-0.7-1.5-1.5-1.5        C23.5,1.5,22.9,2.1,22.9,2.9"></path>    <path fill="#FFFFFF" d="M21.8,1.7c-0.2,0.4-0.3,0.8-0.3,1.3c0,0.4,0.1,0.8,0.2,1.1c0,0,0.1,0.1,0.1,0c0,0,0,0,0-0.1        c-0.2-0.3-0.2-0.7-0.2-1.1c0-0.5,0.2-1,0.4-1.4c0,0,0,0-0.1,0C21.9,1.5,21.9,1.6,21.8,1.7"></path>    <path fill="#FFFFFF" d="M25.8,2.1C25.7,2.1,25.7,2,25.8,2.1L25.8,2.1c0,0.2,0.1,0.5,0.1,0.8c0,0.4-0.2,0.9-0.5,1.2l0,0l0,0        c0,0,0.1,0,0.2,0C25.8,3.8,26,3.4,26,2.9C26,2.7,25.9,2.4,25.8,2.1"></path>    <path fill="#FFFFFF" d="M20.4,8.8C20.3,8.8,20.3,8.8,20.4,8.8c-0.1,0.1,0,0.2,0,0.2h7.9c0,0,0.1,0,0.1-0.1c0,0,0-0.1-0.1-0.1        C28.3,8.8,20.4,8.8,20.4,8.8z"></path>    <path fill="#FFFFFF" d="M20,6.9L20,6.9v1.5c0,0,0,0.1,0.1,0.1c0,0,0.1,0,0.1-0.1V7.1h8.1c0,0,0.1,0,0.1-0.1c0,0,0-0.1-0.1-0.1H20z"></path>    <path fill="#FFFFFF" d="M13.1,37.1l2.2-2.5l-0.1-0.1L13,37C13,37,13.1,37,13.1,37.1"></path>    <path fill="#FFFFFF" d="M11.3,38.9l-2.6,2.9c0,0-0.6,0.2,0.1,0.1l2.6-2.9C11.4,38.9,11.3,38.9,11.3,38.9"></path>    <path fill="#FFFFFF" d="M35.5,36.7l-2.2-2.5l-0.1,0.1L35.5,36.7C35.4,36.7,35.4,36.7,35.5,36.7"></path>    <path fill="#FFFFFF" d="M39.7,41.5l-2.6-2.9L37,38.7L39.7,41.5C40.4,41.6,39.7,41.5,39.7,41.5"></path>    <path fill="#FFFFFF" d="M8.5,33.4c0.1,0.2,0.2,0.5,0.4,0.7c1.1,1.9,1.9,2.9,3.4,4.4c1.9,1.8,3.2,2.7,5.6,3.5        c1.4,0.5,2.5,0.7,4.1,0.8c0,0,1.8,0.3,2.1,2.8v-6c-0.1,2.9-2,3-2,3c-1.6-0.1-2.6-0.2-4.1-0.8c-2.4-0.8-3.7-1.8-5.6-3.5        c-1.6-1.5-2.4-2.5-3.4-4.4c-0.1-0.2-0.2-0.4-0.3-0.6c-0.6-1.1,1.3-0.8,1.8-0.9l-0.1-0.1l-2.2-0.2c-0.4-0.9-0.7-1.9-1-2.8        c0,0-0.1,0-0.1,0.2c0.2,0.8,0.6,1.8,0.9,2.6l-0.6,2.4l0.1,0.1C7.6,34.4,8.1,32.5,8.5,33.4"></path>    <path fill="#FFFFFF" d="M39.7,33.4c-0.1,0.2-0.2,0.5-0.4,0.7c-1.1,1.9-1.9,2.9-3.4,4.4c-1.9,1.8-3.2,2.7-5.6,3.5        c-1.4,0.5-2.5,0.7-4.1,0.8l-0.1-0.2c1.6-0.1,2.6-0.2,4.1-0.8c2.4-0.8,3.7-1.8,5.6-3.5c1.6-1.5,2.4-2.5,3.4-4.4        c0.1-0.2,0.2-0.4,0.3-0.6c0.6-1.1-1.3-0.8-1.8-0.9l0.1-0.1l2.2-0.2c0.4-0.9,0.7-1.9,1-2.8c0,0,0.1,0,0.1,0.2        c-0.2,0.8-0.6,1.8-0.9,2.6l0.6,2.4l-0.1,0.1C40.6,34.4,40.1,32.5,39.7,33.4"></path>    <path fill="#231F20" d="M38,24.7c0.1-0.1,0.2-0.2,0.2-0.3c0-0.4-0.4-0.6-0.7-0.6c-0.1,0-0.1,0-0.2,0v-0.1c0.3,0,0.6-0.1,0.7-0.2        c0.1-0.1,0.2-0.2,0.2-0.3c0-0.4-0.4-0.6-0.7-0.6c-0.1,0-0.3,0-0.5,0v-0.1l0,0c0,0,0.1-0.3,0.1-0.6c0-0.2,0-0.5-0.2-0.8        c-0.1-0.2-0.2-0.3-0.3-0.4l0,0l0.1-0.1v-0.1c0,0,0,0,0-0.1c0-0.2,0-0.7-0.4-1.2c-0.1-0.2-0.3-0.3-0.4-0.5v-0.1v-0.1        c0-0.1-0.1-0.7-0.5-1.2c-0.2-0.2-0.4-0.4-0.6-0.5l0,0c0,0,0,0,0-0.1s0-0.1,0-0.1c0-0.1-0.2-0.7-0.7-1.1c-0.2-0.2-0.4-0.2-0.5-0.3        c0,0,0,0,0-0.1s0-0.1-0.1-0.1c0-0.1-0.3-0.7-0.9-1c-0.3-0.2-0.5-0.2-0.7-0.2l0,0c0-0.1-0.1-0.1-0.1-0.2c0-0.1-0.4-0.6-1-0.9        c-0.2-0.1-0.3-0.1-0.5-0.1l0,0l0,0c0-0.1-0.1-0.1-0.1-0.2c0-0.1-0.5-0.5-1.2-0.6c-0.3,0-0.5,0-0.6,0l0,0l0,0c0-0.1-0.1-0.1-0.2-0.1        s-0.6-0.4-1.3-0.4c-0.3,0-0.5,0.1-0.7,0.1l0,0c0-0.1-0.1-0.1-0.2-0.1c0,0-0.1,0-0.2-0.1l0,0c0-0.2-0.1-0.5-0.2-0.6s-0.2-0.2-0.3-0.2        c-0.4,0-0.5,0.3-0.6,0.7l0,0c0,0,0,0-0.1,0c0-0.2-0.1-0.4-0.2-0.5s-0.2-0.2-0.3-0.2c-0.4,0-0.6,0.4-0.6,0.7l0,0l0,0        c0-0.2-0.1-0.4-0.2-0.6c-0.1-0.1-0.2-0.2-0.3-0.2c-0.4,0-0.6,0.4-0.6,0.7v0.1c0,0,0,0,0,0.1c-0.3,0-0.6,0-1,0.1        c-0.2,0.1-0.3,0.2-0.4,0.3l0,0c0-0.1-0.2-0.1-0.2,0c-0.1,0-0.7,0-1.3,0.3c-0.2,0.1-0.3,0.3-0.5,0.4l0,0c-0.1-0.1-0.2,0-0.2,0        c-0.1,0-0.7,0.1-1.2,0.5c-0.2,0.2-0.4,0.4-0.5,0.6l0,0c-0.1-0.1-0.2,0-0.2,0c-0.1,0-0.7,0.2-1.1,0.7c-0.2,0.2-0.2,0.4-0.3,0.5        c-0.1-0.1-0.2,0-0.2,0.1c-0.1,0-0.7,0.3-1,0.9c-0.2,0.3-0.2,0.5-0.2,0.7c-0.1,0-0.1,0.1-0.2,0.1c-0.1,0-0.6,0.4-0.9,1        c-0.1,0.2-0.1,0.3-0.1,0.5l0,0c-0.1,0-0.2,0.1-0.2,0.1c-0.1,0-0.5,0.5-0.6,1.2c0,0.1,0,0.2,0,0.3c0,0.1,0,0.2,0,0.3l0,0        c-0.1,0-0.1,0.1-0.2,0.2c0,0.1-0.4,0.6-0.4,1.3l0,0c0,0.3,0.1,0.5,0.1,0.7l0,0c-0.1,0-0.1,0.1-0.1,0.2c0,0-0.1,0.2-0.2,0.4        c-0.2,0-0.4,0-0.5,0c-0.4,0-0.7,0.2-0.7,0.6c0,0.1,0.1,0.2,0.2,0.3c0.2,0.2,0.5,0.2,0.8,0.2c0.1,0,0.1,0,0.2,0v0.1l0,0        c-0.2,0-0.3,0-0.4,0c-0.4,0-0.7,0.2-0.7,0.6c0,0.1,0.1,0.2,0.2,0.3c0.2,0.2,0.5,0.2,0.8,0.2c0.1,0,0.2,0,0.2-0.1        c0,0.1,0,0.1,0.1,0.2c-0.2,0-0.4,0-0.5,0c-0.4,0-0.7,0.2-0.7,0.6c0,0.1,0.1,0.2,0.2,0.3c0.2,0.2,0.5,0.2,0.8,0.2        c0.1,0,0.2-0.1,0.3-0.1h0.1c0,0.1,0,0.1,0,0.2c0,0.2,0,0.5,0.2,0.8c0.1,0.2,0.2,0.3,0.3,0.4l0,0l-0.1,0.1v0.1c0,0,0,0,0,0.1        c0,0.2,0,0.7,0.4,1.2c0.1,0.2,0.3,0.3,0.4,0.5v0.1v0.1c0,0.1,0.1,0.7,0.5,1.2c0.2,0.2,0.4,0.4,0.6,0.5l0,0c0,0,0,0,0,0.1        s0,0.1,0.1,0.1c0,0.1,0.2,0.7,0.7,1.1c0.2,0.2,0.4,0.2,0.5,0.3c0,0,0,0,0,0.1s0,0.1,0.1,0.1c0,0.1,0.3,0.7,0.9,1        c0.3,0.2,0.5,0.2,0.7,0.2l0,0c0,0.1,0.1,0.1,0.1,0.2c0,0.1,0.4,0.6,1,0.9c0.2,0.1,0.3,0.1,0.5,0.1l0,0l0,0c0,0.1,0.1,0.1,0.1,0.2        c0,0.1,0.5,0.5,1.2,0.6c0.3,0,0.5,0,0.6,0l0,0l0,0c0,0.1,0.1,0.1,0.2,0.1s0.6,0.4,1.3,0.4c0.3,0,0.5-0.1,0.7-0.1l0,0        c0,0.1,0.1,0.1,0.2,0.1l0,0c-0.1,0.2-0.1,0.5-0.1,0.7c0,0.1,0,0.1,0,0.1c0,0.4,0.2,0.7,0.6,0.7c0.1,0,0.2-0.1,0.3-0.2        c0.1-0.2,0.2-0.4,0.2-0.6v-0.1c0-0.1-0.1-0.2-0.1-0.3c0,0,0,0,0-0.1c0.1,0,0.2,0,0.2,0c0,0.2,0,0.3,0,0.4c0,0.1,0,0.1,0,0.1        c0,0.4,0.2,0.7,0.6,0.7c0.1,0,0.2-0.1,0.3-0.2c0.1-0.2,0.2-0.4,0.2-0.6v-0.1c0-0.1-0.1-0.2-0.1-0.3c0,0,0,0,0-0.1c0.1,0,0.2,0,0.2,0        c0,0.2,0,0.3,0,0.5c0,0.1,0,0.1,0,0.1c0,0.4,0.2,0.7,0.6,0.7c0.1,0,0.2-0.1,0.3-0.2c0.1-0.2,0.2-0.4,0.2-0.6v-0.1        c0-0.1-0.1-0.2-0.1-0.3c0,0,0-0.1-0.1-0.2c0.1-0.1,0.1-0.1,0.1-0.2c0.2,0,0.7,0.1,1.3-0.1c0.2-0.1,0.3-0.2,0.4-0.3l0,0        c0,0.1,0.2,0.1,0.2,0c0.1,0,0.7,0,1.3-0.3c0.2-0.1,0.3-0.3,0.5-0.4c0.1,0.1,0.2,0,0.2,0c0.1,0,0.7-0.1,1.2-0.5        c0.2-0.2,0.4-0.4,0.5-0.6l0,0c0.1,0.1,0.2,0,0.2,0c0.1,0,0.7-0.2,1.1-0.7c0.2-0.2,0.2-0.4,0.3-0.5c0.1,0.1,0.2,0,0.2-0.1        c0.1,0,0.7-0.3,1-0.9c0.2-0.3,0.2-0.5,0.2-0.7c0.1,0,0.1-0.1,0.2-0.1c0.1,0,0.6-0.4,0.9-1c0.1-0.2,0.1-0.3,0.1-0.5l0,0        c0.1,0,0.2-0.1,0.2-0.1c0.1,0,0.5-0.5,0.6-1.2c0-0.1,0-0.2,0-0.3c0-0.1,0-0.2,0-0.3l0,0c0.1,0,0.1-0.1,0.2-0.2        c0-0.1,0.4-0.6,0.4-1.3l0,0c0-0.3-0.1-0.5-0.1-0.7l0,0c0,0,0.1,0,0.1-0.1l0,0c0.1,0,0.2,0.1,0.3,0.1c0.3,0,0.6-0.1,0.8-0.2        c0.1-0.1,0.2-0.2,0.2-0.3C38.7,24.9,38.3,24.7,38,24.7c-0.1,0-0.1,0-0.2,0v-0.1C37.6,24.9,37.8,24.9,38,24.7 M25.9,12.3        c0-0.1,0-0.2,0-0.3c0.3,0.1,0.7,0.1,0.9,0.1c0,0,0.1,0,0.3,0c0.2,0.2,1.2,0.5,1.6,0.6c0,0,0.1,0,0.2,0c0.2,0.2,1,0.7,1.5,0.8        c0,0,0.2,0.1,0.4,0.1c0.2,0.3,0.9,0.9,1.3,1.1c0,0,0.1,0,0.2,0.1c0.2,0.3,0.8,1,1.1,1.3c0,0,0.1,0.1,0.3,0.2        c0.1,0.3,0.6,1.2,0.9,1.5c0,0,0.1,0.1,0.2,0.2c0,0.3,0.4,1.2,0.7,1.6c0,0,0,0.1,0.1,0.1c0,0.3,0.2,1.2,0.4,1.6c0,0,0.1,0.2,0.2,0.4        c0,0.2,0,0.5,0,0.8l0,0c-0.1,0-0.3,0-0.4,0.1c-0.1,0-0.1,0-0.2-0.1c-0.6-5.1-4.7-9.2-9.8-10C25.8,12.6,25.9,12.4,25.9,12.3        M36.3,23.8L36.3,23.8c0,0.1-0.1,0.1-0.1,0.1c-0.1,0-0.3,0-0.4,0.1h-0.1c0-0.1,0-0.2,0-0.3C35.8,23.8,36.1,23.8,36.3,23.8        C36.2,23.8,36.2,23.8,36.3,23.8 M24.7,11.9h0.1c0,0.1-0.1,0.2-0.1,0.4c0,0,0,0,0,0.1s0,0.2,0.1,0.3c-0.1,0-0.1,0-0.2,0        c0-0.1,0-0.2,0-0.3C24.7,12.2,24.7,12,24.7,11.9C24.6,11.9,24.7,11.9,24.7,11.9 M23.4,12c0.1,0,0.1,0,0.1,0l0,0        c0,0.1-0.1,0.2-0.1,0.3c0,0,0,0,0,0.1s0,0.2,0.1,0.3c-0.1,0-0.1,0-0.2,0c0-0.1,0.1-0.2,0.1-0.3C23.5,12.2,23.5,12.1,23.4,12        M12.3,21.2c0.2-0.2,0.5-1.2,0.6-1.6c0,0,0-0.1,0-0.2c0.2-0.2,0.7-1,0.8-1.5c0,0,0.1-0.2,0.1-0.4c0.3-0.2,0.9-0.9,1.1-1.3        c0,0,0-0.1,0.1-0.2c0.3-0.2,1-0.8,1.3-1.1c0,0,0.1-0.1,0.2-0.3c0.3-0.1,1.2-0.6,1.5-0.9c0,0,0.1-0.1,0.2-0.2c0.3,0,1.2-0.4,1.6-0.7        c0,0,0.1,0,0.1-0.1c0.3,0,1.2-0.2,1.6-0.4c0,0,0.2-0.1,0.4-0.2c0.1,0,0.2,0,0.4,0c0,0.1,0,0.1,0,0.2c0,0,0,0,0,0.1s0,0.3,0.1,0.4        l0,0c-5,0.8-9,4.8-9.6,9.9c-0.1,0-0.3,0-0.4,0.1c-0.1-0.1-0.2-0.1-0.3-0.1c0.1-0.4,0.2-0.9,0.2-1.2C12.3,21.4,12.3,21.3,12.3,21.2        M17.6,20.2l3.8,11.9c-3.3-1.2-5.7-4.3-5.7-8c0-1.8,0.6-3.5,1.5-4.9l0.1,1.2L17.6,20.2z M12,23.8c0.2,0,0.4-0.1,0.5-0.2h0.1        c0,0.1,0,0.2,0,0.2c-0.1,0-0.2,0-0.3,0.1C12.3,23.9,12.2,23.8,12,23.8C12.1,23.8,12,23.8,12,23.8 M12.1,25c0.2,0,0.4-0.1,0.5-0.2        h0.1c0,0.1,0,0.2,0,0.2c-0.1,0-0.2,0-0.3,0.1C12.3,25.1,12.2,25.1,12.1,25L12.1,25 M22.4,36.1C22.1,36,21.8,36,21.5,36        c0,0-0.1,0-0.3,0c-0.2-0.2-1.2-0.5-1.6-0.6c0,0-0.1,0-0.2,0c-0.2-0.2-1-0.7-1.5-0.8c0,0-0.2-0.1-0.4-0.1c-0.2-0.3-0.9-0.9-1.3-1.1        c0,0-0.1,0-0.2-0.1c-0.2-0.3-0.8-1-1.1-1.3c0,0-0.1-0.1-0.3-0.2c-0.1-0.3-0.6-1.2-0.9-1.5c0,0-0.1-0.1-0.2-0.2        c0-0.3-0.4-1.2-0.7-1.6c0,0,0-0.1-0.1-0.1c0-0.3-0.2-1.2-0.4-1.6c0,0-0.1-0.2-0.2-0.4c0-0.1,0-0.1,0-0.2c0.2,0,0.3-0.1,0.4-0.1        c0.1,0,0.2,0,0.3,0.1c0.8,4.8,4.7,8.6,9.5,9.3C22.3,35.6,22.4,35.9,22.4,36.1L22.4,36.1 M23.6,36.3h-0.1c0-0.2-0.1-0.3-0.1-0.4        c0-0.1,0.1-0.2,0.1-0.3c0.1,0,0.1,0,0.2,0c0,0.2,0,0.4,0.1,0.5C23.6,36.1,23.6,36.2,23.6,36.3 M24.8,36.2L24.8,36.2        C24.7,36.2,24.7,36.2,24.8,36.2c-0.1,0-0.1,0-0.1,0c0-0.1-0.1-0.3-0.1-0.3c0-0.1,0.1-0.2,0.1-0.3c0.1,0,0.1,0,0.2,0        c0,0.2,0,0.4,0.1,0.5C24.8,36.1,24.8,36.2,24.8,36.2 M24.2,32.6c-0.6,0-1.2-0.1-1.8-0.2l0,0l-4.1-12.5l0.3-0.1l-0.9-1.1        c1.6-1.9,3.9-3.1,6.6-3.1c4.7,0,8.5,3.8,8.5,8.5c0,1-0.2,1.9-0.5,2.7c-1.6-2.6-2.3-5.5-2.2-8.9l0,0c-1.4,0.5-2.4,1-3.4,1.5        c0-0.1,0-0.2,0-0.3c0-0.5-0.2-1.2-1.4-1.3c-1.6-0.1-3.9,0.6-6.8,2.4l0,0c1.1,1.4,2.6,6.7,3,9l0,0c0.9-0.7,1.8-1.2,2.5-1.5l0,0        c0,0.2-0.1,0.6-0.1,0.9c0,0.6,0.1,1.2,0.5,1.5s1,0.3,1.7,0.1c1-0.3,1.9-0.9,2.9-1.5s2-1.3,3.1-1.6C30.8,30.4,27.8,32.6,24.2,32.6        M36.1,27c-0.2,0.2-0.5,1.2-0.6,1.6c0,0,0,0.1,0,0.2c-0.2,0.2-0.7,1-0.8,1.5c0,0-0.1,0.2-0.1,0.4c-0.3,0.2-0.9,0.9-1.1,1.3        c0,0,0,0.1-0.1,0.2c-0.3,0.2-1,0.8-1.3,1.1c0,0-0.1,0.1-0.2,0.3c-0.3,0.1-1.2,0.6-1.5,0.9c0,0-0.1,0.1-0.2,0.2        c-0.3,0-1.2,0.4-1.6,0.7c0,0-0.1,0-0.1,0.1c-0.3,0-1.2,0.2-1.6,0.4c0,0-0.2,0.1-0.4,0.2c-0.1,0-0.4,0-0.6,0c0-0.1-0.1-0.2-0.1-0.2        c0-0.1,0.1-0.3,0.1-0.4c4.9-0.7,8.8-4.5,9.7-9.4h0.1c0.1,0.1,0.4,0.1,0.5,0.2c0,0.2,0,0.4,0,0.5C36,26.7,36.1,26.8,36.1,27        M36.4,25.1c-0.1,0-0.2,0-0.2,0c-0.1,0-0.3,0-0.4,0.1h-0.1c0-0.1,0-0.2,0-0.3c0.1,0.1,0.4,0.1,0.5,0.1C36.2,25,36.3,25,36.4,25.1        C36.4,25,36.4,25,36.4,25.1C36.4,25,36.4,25,36.4,25.1"></path>    <path fill="#FFFFFF" d="M17,13.7c0.1-0.2,0.2-0.5,0.5-0.8c0.5-0.5,1.2-0.5,1.2-0.5l0,0l0,0c0,0,0,0,0.1,0c0,0.2-0.5,0.8-0.9,1.1        c-0.3,0.3-1,0.7-1.3,0.8C16.8,14.1,16.9,13.9,17,13.7"></path>    <path fill="#FFFFFF" d="M15.3,15.1c0.1-0.3,0.1-0.5,0.4-0.8c0.4-0.5,1.1-0.7,1.1-0.7l0,0l0,0c0,0,0,0,0.1,0c0,0.2-0.4,0.8-0.7,1.2        c-0.3,0.4-0.8,0.8-1.1,1C15.2,15.5,15.3,15.3,15.3,15.1"></path>    <path fill="#FFFFFF" d="M14,16.6c0-0.3,0-0.5,0.2-0.9c0.3-0.6,0.9-0.8,0.9-0.8l0,0l0,0c0,0,0,0,0.1,0l0,0c0,0.2-0.2,0.9-0.5,1.3        c-0.2,0.4-0.7,0.9-0.9,1.2C14,17,14,16.8,14,16.6"></path>    <path fill="#FFFFFF" d="M12.9,18.8c0-0.1,0-0.3,0-0.4s0-0.2,0-0.4c0-0.2,0-0.3,0.1-0.5c0.2-0.6,0.8-1,0.8-1l0,0l0,0l0,0        c0,0,0,0,0,0.1c0,0.2-0.1,0.9-0.3,1.3c-0.1,0.4-0.5,1-0.7,1.3C12.9,19,12.9,18.9,12.9,18.8"></path>    <path fill="#FFFFFF" d="M12.2,20.8c0-0.2-0.1-0.4-0.1-0.6c0-0.2-0.1-0.4-0.1-0.6c0-0.1,0-0.2,0-0.3c0.1-0.7,0.6-1.1,0.6-1.1l0,0l0,0        c0,0,0,0,0-0.1c0,0.1,0.1,0.3,0.1,0.7c0,0.3,0,0.5,0,0.8c0,0.4-0.3,1.1-0.5,1.4C12.2,20.9,12.2,20.8,12.2,20.8"></path>    <path fill="#FFFFFF" d="M20.6,11.7C20.7,11.7,20.7,11.7,20.6,11.7c0,0.1-0.6,0.7-1,1c-0.3,0.2-1,0.5-1.4,0.6        c0.2-0.2,0.4-0.4,0.5-0.6c0.1-0.2,0.3-0.4,0.6-0.7C20,11.6,20.6,11.7,20.6,11.7L20.6,11.7L20.6,11.7z"></path>    <path fill="#231F20" d="M19.9,12.6"></path>    <path fill="#FFFFFF" d="M28,12c0.3-0.1,0.5-0.1,0.9-0.1c0.7,0.1,1.1,0.6,1.1,0.6l0,0l0,0c0,0,0,0,0.1,0c-0.1,0.1-0.9,0.1-1.4,0        c-0.4,0-1.1-0.3-1.4-0.5C27.6,12.1,27.8,12.1,28,12"></path>    <path fill="#FFFFFF" d="M29.8,12.8c0.3,0,0.5-0.1,0.9,0.1c0.6,0.2,1,0.8,1,0.8l0,0l0,0l0,0c-0.2,0-0.9-0.1-1.4-0.3        c-0.4-0.1-1-0.5-1.3-0.7C29.3,12.8,29.6,12.8,29.8,12.8"></path>    <path fill="#FFFFFF" d="M32.1,14.6c-0.4-0.2-0.9-0.7-1.2-0.9c0.3,0.1,0.5,0.1,0.7,0.2c0.3,0,0.5,0,0.9,0.2c0.6,0.3,0.8,0.9,0.8,0.9        l0,0l0,0c0,0,0,0,0,0.1C33.2,15.1,32.5,14.9,32.1,14.6"></path>    <path fill="#FFFFFF" d="M33.4,16.1c-0.4-0.3-0.8-0.8-1-1.1c0.3,0.2,0.5,0.2,0.7,0.3c0.3,0.1,0.5,0.1,0.8,0.4        c0.5,0.4,0.7,1.1,0.7,1.1l0,0l0,0c0,0,0,0,0,0.1C34.5,16.7,33.9,16.4,33.4,16.1"></path>    <path fill="#FFFFFF" d="M34.7,17.8c-0.3-0.3-0.7-1-0.8-1.3c0.2,0.2,0.4,0.3,0.7,0.4c0.2,0.1,0.5,0.2,0.8,0.5        c0.5,0.5,0.5,1.2,0.5,1.2l0,0l0,0c0,0,0,0,0,0.1C35.7,18.6,35.1,18.1,34.7,17.8"></path>    <path fill="#FFFFFF" d="M35.6,19.6c-0.2-0.3-0.5-1-0.6-1.4c0.2,0.2,0.4,0.4,0.6,0.5c0.2,0.1,0.4,0.3,0.7,0.6        c0.3,0.4,0.3,0.9,0.3,1.1c0,0.1,0,0.1,0,0.1l0,0l0,0c0,0,0,0,0,0.1C36.4,20.5,35.9,20,35.6,19.6"></path>    <path fill="#FFFFFF" d="M36.1,21.4c-0.2-0.4-0.3-1.1-0.4-1.4c0.1,0.3,0.3,0.4,0.5,0.6s0.4,0.3,0.6,0.7c0.1,0.3,0.1,0.5,0.1,0.7        c0,0.3-0.1,0.5-0.1,0.5l0,0l0,0l0,0l0,0C36.7,22.5,36.3,21.8,36.1,21.4"></path>    <path fill="#FFFFFF" d="M35.6,29.4c0-0.3,0-0.5,0-0.8c0-0.4,0.3-1.1,0.5-1.4v0.1c0,0.2,0.1,0.4,0.1,0.6c0.1,0.2,0.1,0.4,0.1,0.6        c0,0.1,0,0.2,0,0.3c-0.1,0.7-0.6,1.1-0.6,1.1l0,0l0,0c0,0,0,0,0,0.1C35.6,30,35.6,29.7,35.6,29.4"></path>    <path fill="#FFFFFF" d="M34.5,31.6c0-0.2,0.1-0.9,0.3-1.3c0.1-0.4,0.5-1,0.7-1.3c0,0.1-0.1,0.3-0.1,0.4s0,0.3,0,0.4s0,0.2,0,0.4        c0,0.2,0,0.3-0.1,0.5C35.1,31.3,34.6,31.6,34.5,31.6L34.5,31.6L34.5,31.6C34.5,31.6,34.5,31.7,34.5,31.6        C34.5,31.7,34.5,31.6,34.5,31.6"></path>    <path fill="#FFFFFF" d="M33.1,33.3c0-0.2,0.2-0.9,0.5-1.3c0.2-0.4,0.7-0.9,0.9-1.2c-0.1,0.3-0.1,0.5-0.2,0.7c0,0.3,0,0.5-0.2,0.9        C33.8,33.1,33.2,33.3,33.1,33.3L33.1,33.3L33.1,33.3L33.1,33.3C33.1,33.4,33.1,33.3,33.1,33.3"></path>    <path fill="#FFFFFF" d="M32.2,33.4c0.3-0.4,0.8-0.8,1.1-1c-0.2,0.3-0.2,0.5-0.3,0.7c-0.1,0.3-0.1,0.5-0.4,0.8        c-0.4,0.5-1.1,0.7-1.1,0.7l0,0l0,0c0,0,0,0-0.1,0C31.5,34.5,31.9,33.8,32.2,33.4"></path>    <path fill="#FFFFFF" d="M30.4,34.6c0.3-0.3,1-0.7,1.3-0.8c-0.2,0.2-0.3,0.4-0.4,0.7c-0.1,0.2-0.2,0.5-0.5,0.8        c-0.5,0.5-1.2,0.5-1.2,0.5l0,0l0,0c0,0,0,0-0.1,0C29.6,35.6,30.1,35,30.4,34.6"></path>    <path fill="#FFFFFF" d="M28.6,35.5c0.3-0.2,1-0.5,1.4-0.6c-0.2,0.2-0.4,0.4-0.5,0.6c-0.1,0.2-0.3,0.4-0.6,0.7        c-0.6,0.4-1.2,0.3-1.2,0.3l0,0l0,0c0,0,0,0-0.1,0C27.7,36.4,28.2,35.8,28.6,35.5"></path>    <path fill="#FFFFFF" d="M19.6,35.5c0.4,0,1.1,0.3,1.4,0.5c-0.3,0-0.5,0-0.8,0.1s-0.5,0.1-0.9,0.1c-0.7-0.1-1.1-0.6-1.1-0.6l0,0l0,0        c0,0,0,0-0.1,0C18.4,35.5,19.1,35.5,19.6,35.5"></path>    <path fill="#FFFFFF" d="M18,34.7c0.4,0.1,1,0.5,1.3,0.7c-0.3-0.1-0.5-0.1-0.7,0c-0.3,0-0.5,0.1-0.9-0.1c-0.6-0.2-1-0.8-1-0.8l0,0        l0,0l0,0C16.8,34.4,17.5,34.5,18,34.7"></path>    <path fill="#FFFFFF" d="M16.3,33.5c0.4,0.2,0.9,0.7,1.2,0.9c-0.3-0.1-0.5-0.1-0.7-0.2c-0.3,0-0.5,0-0.9-0.2        c-0.6-0.3-0.8-0.9-0.8-0.9l0,0l0,0c0,0,0,0,0-0.1C15.1,33,15.8,33.3,16.3,33.5"></path>    <path fill="#FFFFFF" d="M15.2,32.9c-0.3-0.1-0.5-0.1-0.8-0.4c-0.5-0.4-0.7-1.1-0.7-1.1l0,0l0,0c0,0,0,0,0-0.1c0.2,0,0.8,0.4,1.2,0.7        c0.4,0.3,0.8,0.8,1,1.1C15.7,33.1,15.4,33,15.2,32.9"></path>    <path fill="#FFFFFF" d="M13.8,31.3c-0.2-0.1-0.5-0.2-0.8-0.5c-0.5-0.5-0.5-1.2-0.5-1.2l0,0l0,0c0,0,0,0,0-0.1c0.2,0,0.8,0.5,1.1,0.9        c0.3,0.3,0.7,1,0.8,1.3C14.2,31.4,14,31.3,13.8,31.3"></path>    <path fill="#FFFFFF" d="M12.8,29.5c-0.2-0.1-0.4-0.3-0.7-0.6c-0.3-0.4-0.3-0.9-0.3-1.1c0-0.1,0-0.1,0-0.1l0,0l0,0c0,0,0,0,0-0.1        c0.2,0.1,0.7,0.6,1,1c0.2,0.3,0.5,1,0.6,1.4C13.2,29.7,13,29.6,12.8,29.5"></path>    <path fill="#FFFFFF" d="M22.4,36.8L22.4,36.8L22.4,36.8C22.3,36.8,22.3,36.8,22.4,36.8C22.3,36.8,22.3,36.8,22.4,36.8"></path>    <path fill="#FFFFFF" d="M22.3,36.6C22.3,36.6,22.3,36.5,22.3,36.6c0-0.1,0-0.1,0-0.2c0-0.1,0-0.2,0-0.2c-0.3-0.1-0.6-0.1-0.8-0.1        c-0.5,0-1.3,0.1-1.4,0.2c0,0,0,0,0.1,0l0,0l0,0c0,0,0.5,0.4,1.2,0.4C21.8,36.8,22.1,36.7,22.3,36.6L22.3,36.6"></path>    <path fill="#FFFFFF" d="M23,36.2c-0.3,0.1-0.5,1.1-0.5,1.6c0,0.2,0.1,0.6,0.4,0.6c0.1,0,0.2-0.1,0.2-0.1c0.1-0.2,0.2-0.4,0.2-0.6        c0-0.1,0-0.2-0.1-0.3v-0.1c-0.1,0.2-0.2,0.3-0.3,0.4l-0.1-0.1c0.2-0.2,0.6-0.7,0.6-1.1c0-0.1,0-0.2-0.1-0.3c0-0.1,0-0.1-0.1-0.2        C23.1,36,23.1,36.1,23,36.2L23,36.2z"></path>    <path fill="#FFFFFF" d="M25.9,36.4c0.1-0.1,0.2-0.1,0.4-0.2c-0.1,0-0.3,0-0.4,0C25.9,36.3,25.9,36.4,25.9,36.4"></path>    <path fill="#FFFFFF" d="M23.6,36.9L23.6,36.9L23.6,36.9L23.6,36.9L23.6,36.9C23.5,36.9,23.5,36.9,23.6,36.9        C23.5,36.9,23.5,36.9,23.6,36.9L23.6,36.9z"></path>    <path fill="#FFFFFF" d="M24.7,36.5L24.7,36.5C24.7,36.4,24.7,36.4,24.7,36.5l-0.1-0.1C24.7,36.4,24.7,36.4,24.7,36.5        c-0.1,0.2-0.1,0.4-0.2,0.6c0.1,0,0.2,0,0.3,0c0-0.1,0-0.1,0-0.2C24.8,36.9,24.7,36.7,24.7,36.5"></path>    <path fill="#FFFFFF" d="M23.6,37.1C23.5,37.1,23.5,37.1,23.6,37.1c-0.1,0-0.2,0-0.2-0.1c0,0,0,0.1-0.1,0.1        C23.4,37.1,23.5,37.1,23.6,37.1L23.6,37.1"></path>    <path fill="#FFFFFF" d="M23.5,36.7c0-0.1,0-0.1,0-0.2c0,0,0,0,0-0.1l0,0c0,0,0,0-0.1,0l0,0c0,0.1,0,0.3,0,0.4        C23.5,36.8,23.5,36.7,23.5,36.7"></path>    <path fill="#FFFFFF" d="M24.2,36.2c-0.3,0.1-0.5,1.1-0.5,1.6c0,0.2,0.1,0.6,0.4,0.6c0.1,0,0.2-0.1,0.2-0.1c0.1-0.2,0.2-0.4,0.2-0.6        c0-0.1,0-0.2-0.1-0.3v-0.1c-0.1,0.2-0.2,0.3-0.3,0.4L24,37.6c0.2-0.2,0.6-0.7,0.6-1.1c0-0.1,0-0.2-0.1-0.3c0-0.1,0-0.1-0.1-0.2        C24.3,36,24.3,36.1,24.2,36.2L24.2,36.2z"></path>    <path fill="#FFFFFF" d="M25.4,36.2c-0.3,0.1-0.5,1.1-0.5,1.6c0,0.2,0.1,0.6,0.4,0.6c0.1,0,0.2-0.1,0.2-0.1c0.1-0.2,0.2-0.4,0.2-0.6        c0-0.1,0-0.2-0.1-0.3v-0.1c-0.1,0.2-0.2,0.3-0.3,0.4l-0.1-0.1c0.2-0.2,0.6-0.7,0.6-1.1c0-0.1,0-0.2-0.1-0.3c0-0.1,0-0.1-0.1-0.2        C25.5,36,25.5,36.1,25.4,36.2L25.4,36.2z"></path>    <path fill="#FFFFFF" d="M26.9,36c-0.3,0.2-0.7,0.4-1,0.6c0,0.1,0,0.1,0,0.2c0.2,0,0.7,0.1,1.2-0.1c0.4-0.2,0.5-0.3,0.7-0.6        c0.1-0.2,0.3-0.3,0.6-0.5C27.9,35.7,27.2,35.8,26.9,36"></path>    <path fill="#FFFFFF" d="M11.9,26.2c-0.2,0-0.4-0.1-0.5-0.1c0,0,0,0.1,0,0.2c0,0.2,0,0.5,0.1,0.7c0.1,0.4,0.3,0.5,0.6,0.7        c0.2,0.1,0.3,0.3,0.5,0.5c0-0.4-0.2-1-0.4-1.4C12.2,26.6,12,26.4,11.9,26.2"></path>    <path fill="#FFFFFF" d="M12,26.2L12,26.2C12.1,26.2,12.1,26.2,12,26.2L12,26.2"></path>    <path fill="#FFFFFF" d="M11.3,24.8h-0.1c0,0.1,0.1,0.2,0.1,0.2c0.1,0,0.2,0,0.3,0.1c0.1,0,0.2-0.1,0.4-0.1c0,0,0,0,0-0.1        C11.7,25,11.5,24.9,11.3,24.8"></path>    <path fill="#FFFFFF" d="M11.3,23.6L11.3,23.6c0,0.1-0.1,0.2-0.1,0.3c0.1,0,0.2,0,0.3,0.1l0,0c0-0.1-0.1-0.2-0.1-0.2        C11.4,23.6,11.4,23.6,11.3,23.6"></path>    <path fill="#FFFFFF" d="M11.6,22.7L11.6,22.7c0-0.3-0.1-0.5-0.1-0.5s0,0,0,0.1l0,0l0,0c0,0-0.1,0.1-0.2,0.3        C11.4,22.7,11.5,22.7,11.6,22.7"></path>    <path fill="#FFFFFF" d="M11.7,23.7c0,0,0,0.1,0.1,0.1s0.1,0,0.2,0c0,0,0,0,0-0.1C11.8,23.8,11.8,23.7,11.7,23.7"></path>    <path fill="#FFFFFF" d="M11.8,22.6h0.1c0.1-0.3,0.2-0.8,0.2-1.1c0,0,0,0,0-0.1c0-0.5-0.1-1.3-0.2-1.4c0,0,0,0,0,0.1l0,0l0,0        c0,0-0.4,0.5-0.4,1.2l0,0c0,0.4,0.1,0.6,0.2,0.9C11.7,22.3,11.8,22.5,11.8,22.6"></path>    <path fill="#FFFFFF" d="M12.2,23.3c-0.1-0.3-1.1-0.5-1.6-0.5c-0.2,0-0.6,0.1-0.6,0.4c0,0.1,0.1,0.2,0.1,0.2c0.2,0.1,0.4,0.2,0.6,0.2        c0.1,0,0.2,0,0.3-0.1h0.1c-0.2-0.1-0.3-0.2-0.4-0.3l0.1-0.1c0.2,0.2,0.7,0.6,1.1,0.6c0.1,0,0.2,0,0.3-0.1c0.1,0,0.1,0,0.2-0.1        C12.4,23.4,12.3,23.4,12.2,23.3L12.2,23.3z"></path>    <path fill="#FFFFFF" d="M12.2,24.5c-0.1-0.3-1.1-0.5-1.6-0.5c-0.2,0-0.6,0.1-0.6,0.4c0,0.1,0.1,0.2,0.1,0.2c0.2,0.1,0.4,0.2,0.6,0.2        c0.1,0,0.2,0,0.3-0.1h0.1c-0.2-0.1-0.3-0.2-0.4-0.3l0.1-0.1c0.2,0.2,0.7,0.6,1.1,0.6c0.1,0,0.2,0,0.3-0.1c0.1,0,0.1,0,0.2-0.1        C12.4,24.6,12.3,24.6,12.2,24.5L12.2,24.5z"></path>    <path fill="#FFFFFF" d="M12.2,25.7c-0.1-0.3-1.1-0.5-1.6-0.5c-0.2,0-0.6,0.1-0.6,0.4c0,0.1,0.1,0.2,0.1,0.2c0.2,0.1,0.4,0.2,0.6,0.2        c0.1,0,0.2,0,0.3-0.1h0.1c-0.2-0.1-0.3-0.2-0.4-0.3l0.1-0.1c0.2,0.2,0.7,0.6,1.1,0.6c0.1,0,0.2,0,0.3-0.1c0.1,0,0.1,0,0.2-0.1        C12.4,25.9,12.3,25.8,12.2,25.7L12.2,25.7z"></path>    <path fill="#FFFFFF" d="M36.6,22.7L36.6,22.7c0.1,0,0.1-0.1,0-0.1c-0.1-0.2-0.3-0.4-0.4-0.7c0,0.1,0,0.2,0,0.2c0,0.1,0,0.3,0,0.4        C36.4,22.6,36.6,22.7,36.6,22.7"></path>    <path fill="#FFFFFF" d="M36.6,23.9c0.2-0.1,0.4-0.1,0.6-0.1v-0.1c-0.1,0-0.1,0-0.2-0.1c0,0-0.1,0-0.2-0.1c-0.1,0.1-0.2,0.1-0.3,0.2        C36.5,23.8,36.5,23.8,36.6,23.9L36.6,23.9"></path>    <path fill="#FFFFFF" d="M36.4,23.9C36.4,23.9,36.4,23.8,36.4,23.9L36.4,23.9L36.4,23.9"></path>    <path fill="#FFFFFF" d="M36.6,25.1C36.8,25,37,25,37.2,25v-0.1h-0.1c0,0,0,0-0.1,0c0,0-0.1,0-0.2-0.1l0,0c-0.1,0.1-0.2,0.1-0.3,0.2        C36.5,25,36.5,25.1,36.6,25.1L36.6,25.1"></path>    <path fill="#FFFFFF" d="M36.2,26.2c0,0.2,0,0.3,0,0.5c0,0,0,0,0,0.1c0,0.5,0.1,1.3,0.2,1.4c0,0,0,0,0-0.1l0,0l0,0        c0,0,0.4-0.5,0.4-1.2l0,0c0-0.3-0.1-0.5-0.2-0.7C36.6,26.1,36.4,26.2,36.2,26.2"></path>    <path fill="#FFFFFF" d="M37.2,23l0.1,0.1c-0.1,0.1-0.2,0.2-0.4,0.3H37c0.1,0,0.2,0.1,0.3,0.1c0.2,0,0.5,0,0.6-0.2        c0.1,0,0.1-0.1,0.1-0.2c0-0.3-0.4-0.4-0.6-0.4c-0.5,0-1.5,0.2-1.6,0.5l0,0c-0.1,0.1-0.2,0.1-0.3,0.2c0,0,0.1,0,0.2,0.1        c0.1,0,0.3,0.1,0.3,0.1C36.5,23.6,37,23.2,37.2,23"></path>    <path fill="#FFFFFF" d="M37.2,24.2l0.1,0.1c-0.1,0.1-0.2,0.2-0.4,0.3H37c0.1,0,0.2,0.1,0.3,0.1c0.2,0,0.5,0,0.6-0.2        c0.1,0,0.1-0.1,0.1-0.2c0-0.3-0.4-0.4-0.6-0.4c-0.5,0-1.5,0.2-1.6,0.5l0,0c-0.1,0.1-0.2,0.1-0.3,0.2c0,0,0.1,0,0.2,0.1        c0.1,0,0.3,0.1,0.3,0.1C36.5,24.8,37,24.4,37.2,24.2"></path>    <path fill="#FFFFFF" d="M37.2,25.5l0.1,0.1c-0.1,0.1-0.2,0.2-0.4,0.3H37c0.1,0,0.2,0.1,0.3,0.1c0.2,0,0.5,0,0.6-0.2        c0.1,0,0.1-0.1,0.1-0.2c0-0.3-0.4-0.4-0.6-0.4c-0.5,0-1.5,0.2-1.6,0.5l0,0c-0.1,0.1-0.2,0.1-0.3,0.2c0,0,0.1,0,0.2,0.1        c0.1,0,0.3,0.1,0.3,0.1C36.5,26,37,25.7,37.2,25.5"></path>    <path fill="#FFFFFF" d="M25.7,11.5c0.1-0.1,0.2-0.1,0.3-0.1c0,0,0,0-0.1,0l0,0l0,0c0,0,0,0-0.1-0.1C25.8,11.3,25.8,11.4,25.7,11.5"></path>    <path fill="#FFFFFF" d="M28.1,11.8L28.1,11.8L28.1,11.8c0,0-0.5-0.4-1.2-0.4c-0.4,0-0.6,0.1-0.9,0.2c-0.1,0-0.2,0.1-0.3,0.1        c0.1,0.1,0.1,0.1,0.1,0.2c0.3,0.1,0.7,0.1,0.9,0.1C27.3,12,28,11.9,28.1,11.8C28.2,11.8,28.1,11.8,28.1,11.8"></path>    <path fill="#FFFFFF" d="M24.6,11.2c0,0.1-0.1,0.2-0.1,0.3c0,0,0,0.1-0.1,0.2c0,0,0.1,0.1,0.1,0.2h0.1h0.1        C24.7,11.5,24.7,11.3,24.6,11.2c0.1-0.1,0.1-0.1,0.1-0.1l0,0c0,0,0,0-0.1,0C24.6,11.1,24.6,11.2,24.6,11.2"></path>    <path fill="#FFFFFF" d="M22.3,11.3c-0.2,0-0.6,0-1,0.1c-0.4,0.2-0.5,0.3-0.7,0.6c-0.1,0.2-0.3,0.3-0.6,0.5c0.4,0,1-0.2,1.4-0.4        c0.3-0.1,0.6-0.3,0.9-0.5C22.3,11.5,22.3,11.4,22.3,11.3"></path>    <path fill="#FFFFFF" d="M23.4,11.8c0.1,0,0.1,0,0.2,0c0-0.1,0-0.2-0.1-0.2s-0.2,0.1-0.2,0.1C23.3,11.7,23.3,11.7,23.4,11.8"></path>    <path fill="#FFFFFF" d="M23.4,11.2c0,0.1-0.1,0.2-0.1,0.3l0,0c0.1,0,0.1-0.1,0.2-0.1C23.5,11.3,23.5,11.2,23.4,11.2L23.4,11.2        C23.5,11.1,23.5,11.1,23.4,11.2C23.5,11.1,23.4,11.1,23.4,11.2L23.4,11.2"></path>    <path fill="#FFFFFF" d="M22.4,11.9C22.4,11.8,22.4,11.8,22.4,11.9c-0.1,0-0.2,0-0.3,0.1C22.1,11.9,22.2,11.9,22.4,11.9L22.4,11.9"></path>    <path fill="#FFFFFF" d="M22.6,12.7L22.6,12.7L22.6,12.7c0.1,0,0.2,0,0.3,0c-0.2-0.1-0.3-0.3-0.4-0.5c0,0.1,0,0.1,0,0.2v0.1        C22.5,12.5,22.5,12.6,22.6,12.7"></path>    <path fill="#FFFFFF" d="M23.7,12.6c0.1,0,0.2,0,0.3,0c-0.1-0.1-0.2-0.3-0.3-0.5c0,0.1,0,0.1,0,0.2v0.1        C23.7,12.5,23.7,12.6,23.7,12.6"></path>    <path fill="#FFFFFF" d="M24.9,12.6c0.1,0,0.2,0,0.3,0c-0.1-0.1-0.3-0.3-0.3-0.5c0,0.1,0,0.1,0,0.2v0.1        C24.9,12.5,24.9,12.6,24.9,12.6"></path>    <path fill="#FFFFFF" d="M36.1,22.8L36.1,22.8c-0.2,0-0.2,0-0.3,0.1l0,0l0,0l0,0h-0.1c0,0.1,0,0.3,0,0.4c0.1,0,0.1-0.1,0.2-0.1        c0.1-0.2,0.3-0.3,0.6-0.4C36.3,22.8,36.2,22.8,36.1,22.8"></path>    <path fill="#FFFFFF" d="M36.1,24L36.1,24c-0.2,0-0.2,0-0.3,0.1l0,0l0,0l0,0c0,0,0,0-0.1,0l0,0c0,0.1,0,0.3,0,0.4        c0.1,0,0.1-0.1,0.2-0.1c0.1-0.2,0.3-0.3,0.6-0.4C36.3,24,36.2,24,36.1,24"></path>    <path fill="#FFFFFF" d="M36.1,25.2L36.1,25.2c-0.2,0-0.2,0-0.3,0.1l0,0l0,0l0,0c0,0-0.1,0-0.1,0.1c0,0.2,0,0.3-0.1,0.5        c0.1-0.1,0.2-0.1,0.3-0.2c0.1-0.2,0.3-0.3,0.6-0.4C36.3,25.2,36.2,25.2,36.1,25.2"></path>    <path fill="#FFFFFF" d="M24.9,35.8c0-0.1,0.1-0.2,0.2-0.2c-0.1,0-0.1,0-0.2,0C24.9,35.6,24.9,35.7,24.9,35.8"></path>    <path fill="#FFFFFF" d="M25.2,35.5L25.2,35.5C25.1,35.6,25,35.8,25,36l0,0l0,0l0,0c0,0.1-0.1,0.2-0.1,0.2v0.1c0,0.1,0,0.1,0,0.2        c0.1-0.3,0.2-0.5,0.4-0.6c0.1-0.1,0.2-0.3,0.3-0.6C25.5,35.5,25.3,35.5,25.2,35.5"></path>    <path fill="#FFFFFF" d="M23.8,35.6c-0.1,0-0.1,0-0.1,0c0,0.1,0,0.1,0,0.2C23.7,35.7,23.8,35.6,23.8,35.6"></path>    <path fill="#FFFFFF" d="M24.2,35.6h-0.1l0,0c-0.1,0.1-0.2,0.2-0.3,0.4l0,0l0,0l0,0c0,0.1-0.1,0.2-0.1,0.2v0.1c0,0.1,0,0.1,0,0.2        c0.1-0.3,0.2-0.5,0.4-0.6c0.1-0.1,0.2-0.3,0.3-0.5C24.3,35.6,24.2,35.6,24.2,35.6"></path>    <path fill="#FFFFFF" d="M22.5,35.8c0.1-0.1,0.1-0.2,0.2-0.3c-0.1,0-0.2,0-0.2,0S22.5,35.7,22.5,35.8"></path>    <path fill="#FFFFFF" d="M22.8,35.5L22.8,35.5c0,0.2-0.1,0.3-0.2,0.5l0,0l0,0l0,0c0,0.1-0.1,0.2-0.1,0.2v0.1c0,0.1,0,0.1,0,0.2        c0.1-0.3,0.2-0.5,0.4-0.6c0.1-0.1,0.2-0.3,0.3-0.6C23.1,35.5,22.9,35.5,22.8,35.5"></path>    <path fill="#FFFFFF" d="M12.7,25.2L12.7,25.2L12.7,25.2L12.7,25.2"></path>    <path fill="#FFFFFF" d="M12.8,25.4c-0.1-0.1-0.2-0.1-0.3-0.2l0,0l0,0l0,0c-0.1,0-0.2-0.1-0.2-0.1h-0.1c-0.1,0-0.1,0-0.2,0        c0.3,0.1,0.5,0.2,0.6,0.4c0.1,0.1,0.3,0.2,0.5,0.3C12.8,25.7,12.8,25.6,12.8,25.4"></path>    <path fill="#FFFFFF" d="M12.7,24.2c-0.1,0-0.1-0.1-0.2-0.1l0,0l0,0l0,0c-0.1,0-0.2-0.1-0.2-0.1h-0.1c-0.1,0-0.1,0-0.2,0        c0.3,0.1,0.5,0.2,0.6,0.4c0.1,0.1,0.2,0.2,0.3,0.2C12.7,24.5,12.7,24.3,12.7,24.2"></path>    <path fill="#FFFFFF" d="M12.8,22.8C12.7,22.8,12.7,22.8,12.8,22.8C12.7,22.8,12.7,22.8,12.8,22.8L12.8,22.8"></path>    <path fill="#FFFFFF" d="M12.7,23c-0.1-0.1-0.2-0.1-0.3-0.1l0,0l0,0l0,0c-0.1,0-0.2-0.1-0.2-0.1h-0.1c-0.1,0-0.1,0-0.2,0        c0.3,0.1,0.5,0.2,0.6,0.4c0.1,0.1,0.2,0.2,0.3,0.2C12.7,23.3,12.7,23.1,12.7,23"></path>    <path fill="#FFFFFF" d="M23,12.5L23,12.5c0.1,0.1,0.1,0.1,0.1,0.1c0.1,0,0.1,0,0.2,0c0-0.1,0.1-0.2,0.1-0.3c0-0.4-0.4-0.9-0.6-1.1        l0.1-0.1c0.1,0.1,0.2,0.2,0.3,0.4v-0.1c0-0.1,0.1-0.2,0.1-0.3c0-0.2,0-0.5-0.2-0.6c0-0.1-0.1-0.1-0.2-0.1c-0.3,0-0.4,0.4-0.4,0.6        C22.4,11.4,22.7,12.4,23,12.5"></path>    <path fill="#FFFFFF" d="M24.2,12.5L24.2,12.5C24.2,12.6,24.2,12.6,24.2,12.5c0.1,0.1,0.2,0.1,0.3,0.1c0-0.1,0-0.2,0-0.3        c0-0.4-0.4-0.9-0.6-1.1l0.1-0.1c0.1,0.1,0.2,0.2,0.3,0.4v-0.1c0-0.1,0.1-0.2,0.1-0.3c0-0.2,0-0.5-0.2-0.6c0-0.1-0.1-0.1-0.2-0.1        c-0.3,0-0.4,0.4-0.4,0.6C23.6,11.4,23.9,12.4,24.2,12.5"></path>    <path fill="#FFFFFF" d="M25.4,12.5L25.4,12.5c0.1,0.1,0.1,0.1,0.1,0.1c0.1,0,0.1,0,0.2,0l0,0c0-0.1,0.1-0.3,0.1-0.3        c0-0.4-0.4-0.9-0.6-1.1l0.1-0.1c0.1,0.1,0.2,0.2,0.3,0.4v-0.1c0-0.1,0.1-0.2,0.1-0.3c0-0.2,0-0.5-0.2-0.6c0-0.1-0.1-0.1-0.2-0.1        c-0.3,0-0.4,0.4-0.4,0.6C24.8,11.4,25.1,12.4,25.4,12.5"></path>    <path fill="#FFFFFF" d="M29.4,32.9l-0.7-0.1l0.6-0.4v-0.7l0.5,0.5l0.6-0.3l-0.3,0.6l0.6,0.5l-0.8-0.1l-0.4,0.7L29.4,32.9z"></path>    <path fill="#FFFFFF" d="M19.5,33l0.6-0.1l-0.6-0.3l0.1-0.8L19,32.3L18.4,32l0.3,0.6l-0.5,0.5H19l0.3,0.6L19.5,33z"></path>    <path fill="#FFFFFF" d="M17.4,31c0.1-0.1,0.2-0.2,0-0.5c0,0-0.2-0.2-0.4-0.1c-0.1,0.1-0.1,0.1,0,0.3l0.3,0.5c0.1,0.1,0.3,0.5,0,0.8        c-0.2,0.2-0.6,0.2-1.1-0.2c-0.6-0.6-0.3-0.9-0.1-1.1l0.4,0.4c0,0-0.2,0.2,0,0.4c0.1,0.1,0.3,0.1,0.3,0.1c0.1-0.1,0-0.2,0-0.3        l-0.2-0.4c-0.1-0.3-0.3-0.6,0-0.8c0.3-0.3,0.7-0.1,1.1,0.2c0.1,0.2,0.4,0.4,0.3,0.7c0,0.2-0.2,0.4-0.2,0.4L17.4,31z"></path>    <path fill="#FFFFFF" d="M16.6,29.6l-0.3-0.4l0.3-0.2l0.3,0.4L16.6,29.6z"></path>    <path fill="#FFFFFF" d="M14.6,28c-0.2,0.1-0.2,0.3-0.1,0.4c0.1,0.3,0.5,0.3,0.8,0.1c0.1,0,0.6-0.3,0.4-0.7c-0.1-0.3-0.3-0.2-0.4-0.2        L15,27.2c0.6-0.3,0.9,0.3,1,0.6c0.1,0.2,0.2,0.5,0.1,0.8s-0.4,0.5-0.6,0.6c-0.3,0.1-0.5,0.2-0.8,0.1s-0.5-0.3-0.6-0.6        C14,28.3,13.9,28,14,27.8s0.3-0.3,0.3-0.3L14.6,28z"></path>    <path fill="#FFFFFF" d="M15.2,26.8l-0.1-0.5l0.4-0.1l0.1,0.5L15.2,26.8z"></path>    <path fill="#FFFFFF" d="M13.9,24c-0.2,0-0.3,0.2-0.3,0.3c0,0.4,0.3,0.5,0.7,0.4c0.1,0,0.6,0,0.6-0.5c0-0.3-0.2-0.3-0.3-0.3v-0.6        c0.6,0,0.7,0.7,0.7,0.9c0,0.2,0,0.6-0.2,0.8c-0.2,0.2-0.5,0.3-0.8,0.3s-0.6-0.1-0.8-0.2c-0.2-0.2-0.3-0.5-0.3-0.8s0.1-0.6,0.2-0.8        c0.2-0.2,0.3-0.2,0.4-0.2L13.9,24z"></path>    <path fill="#FFFFFF" d="M14.4,22.5c-0.3-0.1-0.6-0.2-0.5-0.6c0-0.1,0.1-0.3,0.2-0.3c0.1,0,0.3-0.1,0.5,0c0.3,0.1,0.6,0.2,0.5,0.6        C15,22.6,14.7,22.6,14.4,22.5 M14.2,23.1c0.7,0.2,1.1-0.3,1.2-0.8c0.1-0.5,0-1.1-0.8-1.3c-0.5-0.1-1.1,0-1.3,0.8        c0,0.2-0.1,0.5,0.1,0.9C13.7,23,14.1,23.1,14.2,23.1"></path>    <path fill="#FFFFFF" d="M14.6,19.8l0.1-0.2c0.1-0.2,0.2-0.4,0.4-0.2c0.1,0,0.2,0.1,0.1,0.2c0,0.1,0,0.1-0.1,0.2L15,20L14.6,19.8z        M15.8,21l0.3-0.5l-0.7-0.3l0.1-0.2c0.1-0.2,0.2-0.2,0.4-0.1s0.3,0.1,0.4,0.1l0.3-0.6c-0.1,0-0.4-0.1-0.5-0.1        c-0.3-0.1-0.5-0.1-0.7,0.2l0,0c0-0.1,0.1-0.2,0-0.3c0-0.1-0.1-0.2-0.2-0.3c-0.2-0.1-0.3-0.1-0.4,0c-0.2,0.1-0.2,0.2-0.4,0.5L14,20.1        L15.8,21z"></path>    <path fill="#FFFFFF" d="M15.1,18.1l0.3-0.5l1.6,1.2l-0.3,0.5L15.1,18.1z"></path>    <path fill="#FFFFFF" d="M18.5,15.3l-0.6,0.3l-0.2-0.3l1.6-1l0.2,0.4L19,15l0.8,1.4l-0.5,0.3L18.5,15.3z"></path>    <path fill="#FFFFFF" d="M19.8,14.1l0.6-0.2l0.2,0.7l0.7-0.2L21,13.7l0.6-0.2l0.6,1.9l-0.5,0.2l-0.3-0.8L20.8,15l0.2,0.8L20.5,16        L19.8,14.1z"></path>    <path fill="#FFFFFF" d="M22.2,13.4l0.6-0.1l0.3,2l-0.6,0.1L22.2,13.4z"></path>    <path fill="#FFFFFF" d="M24.1,14.4l0.3-0.8l0,0l0.2,0.8H24.1z M23.3,15.2h0.6l0.2-0.4h0.8l0.1,0.4h0.7l-0.8-2h-0.7L23.3,15.2z"></path>    <path fill="#FFFFFF" d="M26.3,13.4l0.8,0.2l0.2,1.6l0.4-1.4l0.5,0.1l-0.5,2l-0.8-0.3l-0.2-1.7l-0.5,1.5l-0.5-0.1L26.3,13.4z"></path>    <path fill="#FFFFFF" d="M28.7,15.7c0,0.1-0.1,0.3,0.2,0.4c0,0,0.3,0.2,0.4,0c0-0.1,0-0.2-0.1-0.3l-0.4-0.4c-0.1-0.1-0.4-0.4-0.2-0.7        c0.2-0.3,0.5-0.4,1.1-0.1c0.7,0.4,0.5,0.8,0.4,1l-0.5-0.3c0-0.1,0.1-0.2-0.1-0.4c-0.1-0.1-0.3-0.1-0.3,0c-0.1,0.1,0,0.2,0.1,0.3        l0.3,0.3c0.2,0.2,0.5,0.4,0.2,0.8c-0.2,0.4-0.7,0.4-1.1,0.1c-0.2-0.1-0.5-0.3-0.5-0.6c-0.1-0.2,0-0.4,0.1-0.5L28.7,15.7z"></path>    <path fill="#FFFFFF" d="M32,17l0.2,0.2c0.1,0.1,0.2,0.3,0.1,0.5c-0.2,0.2-0.4,0-0.4-0.1l-0.2-0.2L32,17z M30.4,17.6l0.4,0.4l0.5-0.5        l0.3,0.3c0.1,0.1,0.2,0.3,0.4,0.3c0.1,0,0.4,0.1,0.6-0.1s0.2-0.4,0.2-0.6s-0.2-0.4-0.3-0.5l-0.6-0.7L30.4,17.6z"></path>    <path fill="#FFFFFF" d="M32.5,19.1l0.9-0.2l0,0l-0.6,0.7L32.5,19.1z M31.4,18.7l0.3,0.5l0.4-0.1l0.4,0.7l-0.3,0.3l0.3,0.6l1.3-1.7        l-0.4-0.6L31.4,18.7z"></path>    <path fill="#FFFFFF" d="M34.7,20.8l-1.1,0.3c-0.1,0-0.2,0.1-0.3,0.1c-0.1,0.1-0.1,0.3-0.1,0.4c0.1,0.4,0.4,0.3,0.6,0.3l1.1-0.3        l0.2,0.5L34,22.4c-0.2,0.1-0.5,0.1-0.6,0c-0.3-0.1-0.4-0.5-0.5-0.7c-0.3-1,0.3-1.1,0.6-1.2l1.1-0.3L34.7,20.8z"></path>    <path fill="#FFFFFF" d="M35.1,22.9l0.1,0.5l-1.6,0.1v1h-0.4L33.1,23L35.1,22.9z"></path>    <path fill="#FFFFFF" d="M33.1,25.2l0.1-0.6l2,0.2l-0.1,0.6L33.1,25.2z"></path>    <path fill="#FFFFFF" d="M33.6,26.2c-0.1,0-0.3-0.1-0.4,0.3c0,0-0.1,0.3,0.1,0.4c0.1,0,0.2,0,0.2-0.1L33.6,26.2        c0.2,0,0.4-0.4,0.8-0.3c0.3,0.1,0.5,0.4,0.4,1c-0.2,0.8-0.6,0.7-0.8,0.7l0.1-0.6c0.1,0,0.3,0.1,0.3-0.2c0-0.2,0-0.3-0.1-0.3        s-0.2,0.1-0.3,0.2V27c-0.1,0.3-0.3,0.6-0.7,0.5s-0.5-0.5-0.4-1.1c0.1-0.2,0.2-0.5,0.4-0.7c0.2-0.1,0.4-0.1,0.5,0L33.6,26.2z"></path>    <path fill="#FFFFFF" d="M33.9,28.6l0.2-0.6l0.4,0.2l-0.8,1.7l-0.4-0.2l0.3-0.6l-1.4-0.7l0.2-0.5L33.9,28.6z"></path>    <path fill="#FFFFFF" d="M32.2,29.8l0.5,0.7l0,0l-0.8-0.3L32.2,29.8z M32.1,28.7l-0.4,0.5l0.2,0.4l-0.5,0.7L31,30l-0.4,0.5l2.1,0.6        l0.4-0.6L32.1,28.7z"></path>    <path fill="#FFFFFF" d="M21.6,33.3c-0.2,0.1-0.4,0.1-0.5,0.1l0.1-0.4c0.2,0,0.4,0,0.6-0.2l0.5,0.1l-0.5,1.9l-0.5-0.1L21.6,33.3z"></path>    <path fill="#FFFFFF" d="M23.4,34c-0.2,0-0.3-0.2-0.3-0.3c0-0.2,0.1-0.3,0.3-0.3c0.2,0,0.3,0.2,0.3,0.3C23.7,33.9,23.6,34,23.4,34        M22.5,34.5c0,0.1,0,0.2,0.1,0.3c0.2,0.2,0.4,0.2,0.6,0.3c0.2,0,0.5,0,0.7-0.2s0.3-0.5,0.3-0.7s0-0.4-0.1-0.6        c-0.1-0.2-0.2-0.5-0.7-0.5s-0.9,0.2-0.9,0.6c0,0.2,0,0.3,0.2,0.5c0.1,0.1,0.2,0.2,0.5,0.2c0.2,0,0.4-0.1,0.5-0.2        c0,0.3-0.1,0.6-0.4,0.6c-0.2,0-0.3-0.1-0.3-0.2L22.5,34.5z"></path>    <path fill="#FFFFFF" d="M25.2,33.6c-0.1,0.1-0.4,0.3-0.5,0.3l-0.1-0.4c0.2-0.1,0.3-0.2,0.5-0.4l0.5-0.1l0.2,1.9L25.4,35L25.2,33.6z"></path>    <path fill="#FFFFFF" d="M26.9,33.7C26.7,33.1,26.8,33,27,33c0.2-0.1,0.3,0.1,0.3,0.1c0.1,0.1,0.2,0.3,0.2,0.4c0,0,0.1,0.3,0.1,0.5        c0,0.1-0.1,0.1-0.2,0.2C27.2,34.3,27,34.1,26.9,33.7 M26.4,33.9c0.1,0.2,0.2,0.5,0.5,0.7c0.2,0.1,0.4,0.1,0.7,0        c0.6-0.2,0.7-0.7,0.5-1.2c-0.1-0.4-0.3-0.5-0.5-0.6c-0.1-0.1-0.3-0.2-0.7,0c-0.2,0.1-0.4,0.2-0.5,0.4C26.2,33.4,26.3,33.7,26.4,33.9        "></path>    <path fill="#FFFFFF" d="M27.7,28c-1.1,0.7-2.1,1.3-3.2,1.6c0.3,0.4,0.8,0.3,0.9,0.3c0.9-0.3,1.9-0.9,2.9-1.5        c1.1-0.7,2.1-1.4,3.5-1.9c-0.1-0.1-0.1-0.2-0.1-0.3c0-0.1-0.1-0.2-0.1-0.3C29.9,26.6,28.7,27.4,27.7,28"></path>    <path fill="#FFFFFF" d="M26.3,27.2c-0.7,0.2-1.4,0.6-2.1,0.9c0,0.1-0.1,0.3-0.1,0.4s0,0.1,0,0.2c0.1,0,0.2-0.1,0.2-0.1        c0.7-0.3,1.4-0.6,2.1-1.2c0-0.1,0.1-0.1,0.1-0.2l0,0C26.4,27.2,26.4,27.2,26.3,27.2"></path>    <path fill="#FFFFFF" d="M31.1,25.2c0-0.1-0.1-0.3-0.1-0.3l-0.1-0.2c-1.5,0.4-2.9,1.1-4,1.9c0,0,0.1,0.5,0.1,0.6        C28.4,26.2,29.7,25.6,31.1,25.2"></path>    <path fill="#FFFFFF" d="M17.3,18.5c0.2,0.2,0.9,1.1,1,1.2c-0.1,0.1-0.8,0.4-0.9,0.4C17.4,20,17.3,18.9,17.3,18.5"></path>    <path fill="#FFFFFF" d="M17.2,18.3v-0.2l0.2,0.3l0.2-0.3L16.5,17l1.6,0.6l0.6-0.5l-1.4-1.4L16.9,16l1,1.1l-1.5-0.6l-0.6,0.6l1.4,1.4        V18.3z"></path>    <path fill="#FFFFFF" d="M20.1,26.2c0,0-0.4-0.1-0.6-0.2c0.1,0.2,0.3,1,0.3,1.1c0,0,0.4,0.2,0.6,0.2C20.4,27.1,20.1,26.2,20.1,26.2"></path>    <path fill="#FFFFFF" d="M19.4,24c0,0-0.4-0.1-0.5-0.2c0.1,0.2,0.3,1.1,0.3,1.1s0.4,0.1,0.6,0.2C19.7,24.9,19.4,24,19.4,24"></path>    <path fill="#FFFFFF" d="M20.9,28.3c-0.1,0-0.4-0.2-0.6-0.2c0.1,0.2,0.3,1,0.3,1.1c0,0,0.5,0.2,0.6,0.2        C21.1,29.2,20.9,28.4,20.9,28.3"></path>    <path fill="#FFFFFF" d="M18.7,21.8c0,0-0.3-0.1-0.5-0.2c0.1,0.2,0.3,1,0.3,1.1c0,0,0.4,0.1,0.5,0.2C19,22.7,18.7,21.9,18.7,21.8"></path>    <path fill="#FFFFFF" d="M18.1,20c-0.1,0-0.3,0.1-0.4,0.2c0,0.1,0.1,0.4,0.1,0.4s0.3,0.1,0.5,0.2C18.3,20.6,18.1,20.1,18.1,20"></path>    <path fill="#FFFFFF" d="M21.6,30.5c0,0-0.5-0.2-0.6-0.2c0.1,0.2,0.3,1.1,0.3,1.1s0.5,0.2,0.7,0.3C21.9,31.4,21.6,30.6,21.6,30.5"></path>    <path fill="#ED3526" d="M18.5,20.3C18.5,20.3,18.6,20.3,18.5,20.3l0.1,0.3c0.3,0.6,0.7,1.5,1.2,2.9l0.7-0.4c0.9-0.5,1.9-1,3-1.3        c0.2,0,0.4-0.1,0.5-0.1c-0.1-0.8-0.2-1.6-0.3-2.3c0,0-0.2-1.3-0.2-1.4C22.3,18.3,20.6,19.1,18.5,20.3"></path>    <path fill="#FFFFFF" d="M23,19v0.2l0.2-0.2l0.2,0.1l-0.1-0.2l0.1-0.3l-0.2,0.1L23,18.5v0.3l-0.3,0.1L23,19z"></path>    <path fill="#FFFFFF" d="M23.5,21.4v0.3l0.2-0.2H24l-0.2-0.2l0.2-0.2l-0.3,0.1l-0.2-0.3v0.3l-0.3,0.1L23.5,21.4z"></path>    <path fill="#FFFFFF" d="M20.2,22.9v0.2l0.2-0.2l0.2,0.1l-0.1-0.2l0.1-0.3l-0.2,0.1l-0.2-0.2v0.3l-0.3,0.1L20.2,22.9z"></path>    <path fill="#FFFFFF" d="M19.2,20.6v0.3l0.2-0.2l0.3,0.1l-0.2-0.2l0.2-0.3l-0.3,0.1l-0.1-0.2l-0.1,0.3H19L19.2,20.6z"></path>    <path fill="#FFFFFF" d="M23.1,20.8c0-1.9-3.2-2-3.1,0C20,22.7,23.1,22.7,23.1,20.8"></path>    <path fill="#01539B" d="M20.4,20.9L20.4,20.9L20.4,20.9L20.4,20.9L20.4,20.9c0-0.1,0-0.1,0-0.2l0,0h0.1l0,0h0.1c0,0,0-0.1,0-0.2        c0,0,0,0,0-0.1l0,0l0,0l0,0l0,0l0,0l0,0l0,0l0,0l0,0l0,0l0,0l0,0c0,0,0.1-0.1,0.2,0H21l0,0l0,0c0,0,0,0,0-0.1l0,0l0,0l0,0l0,0l0,0        l0,0l0,0l0,0l0-0.3l0,0l0,0l0,0l0,0l0,0l0,0c0,0,0,0,0.1,0l0,0l0,0l0,0l0,0v0.1l0,0l0,0l0,0l0,0l0,0c0,0,0,0,0.1,0l0,0        c0,0,0,0,0.1,0l0,0l0,0l0,0c0,0,0.1-0.1,0.1,0h0.1l0,0l0,0l0,0l0,0l0,0l0,0l0,0l0,0l0,0l0,0l0,0l0,0l0,0l0,0l0,0l0,0l0,0l0,0        c0,0,0,0,0.1,0l0,0l-0.1,0.1l0,0l0,0l0,0l0,0l0,0l0,0l0,0l0,0l0,0l0,0l0,0l0,0c0,0,0.1,0,0.1-0.1l0,0h0.1h0.1l0,0l0,0h0.1l0,0l0,0        H22l0,0h0.1l0,0l0,0l0,0l0,0l0,0l0,0l0,0c0,0,0,0,0.1,0l0,0l0,0l0,0l0,0l0,0v0.2l0,0l0,0l0,0l0,0l0,0l0,0l0,0l0,0l0,0l0,0l0,0l0,0        l0,0l0,0v0.1v0.1v0.1v0.1l0,0l0,0l0,0l0,0l0,0l0,0l0,0l0,0l0,0l0,0l0,0l0,0l0,0l0,0h-0.1H22c0,0-0.1,0-0.1,0.1l0,0l0,0l0,0l0,0l0,0        l0,0c0,0.1,0,0.1,0,0.2l0,0l0,0l0,0l0,0l0,0l0,0l0,0l0,0l0,0l0,0l0,0l0,0l0,0l0,0l0,0l0,0l0,0l0,0l0,0l0,0l0,0l0,0l0,0v0.1l0,0l0,0        l0,0l0,0V21l0,0l0,0l0,0l0,0l0,0h-0.1v-0.1l0,0l0,0l0,0l0,0v-0.1l0,0l0,0l0,0l0,0l0,0l0,0v-0.1c0,0,0,0-0.1,0l0,0v-0.1l0,0l0,0l0,0        h-0.1l0,0v-0.1c0-0.1,0-0.1-0.1-0.1l0,0l0,0c0,0,0,0-0.1,0l0,0l0,0v-0.1h-0.1l0,0l0,0l0,0h-0.1l0,0l0,0l0,0l0,0l0,0l0,0l0,0        c0,0,0,0-0.1,0l0,0l0,0l0,0l0,0l0,0l0,0l0,0H21l0,0l0,0l0,0l0,0h-0.1l0,0l0,0C20.5,21,20.5,21,20.4,20.9L20.4,20.9L20.4,20.9        L20.4,20.9C20.4,21,20.4,21,20.4,20.9C20.4,21,20.4,20.9,20.4,20.9L20.4,20.9L20.4,20.9 M21.8,20h-0.1l0,0l0,0l0,0l0,0l0,0l0,0l0,0        H21.8c-0.1,0.1-0.1,0.1-0.1,0.1l0,0C21.8,20.1,21.8,20,21.8,20L21.8,20L21.8,20L21.8,20L21.8,20L21.8,20L21.8,20z"></path>    <path fill="#FFFFFF" d="M26.5,19.3c-0.7-0.8-1.7-0.7-2.6-0.4c0,0.1,0,0.2,0,0.3c0,0.1,0,0.2,0,0.3c0.8-0.3,1.6-0.3,2.5,0.1        C26.4,19.6,26.4,19.4,26.5,19.3"></path>    <path fill="#FFFFFF" d="M26.3,20.2c-0.8-0.3-1.6-0.2-2.3,0.1l0.1,0.3c0,0,0,0.3,0.1,0.3c0.3-0.1,1.5-0.4,2.1,0        C26.3,20.7,26.3,20.5,26.3,20.2"></path>    <path fill="#FFFFFF" d="M26.5,20.2c0,0.3-0.1,0.5-0.1,0.8c0.2-0.1,0.5-0.3,0.5-0.3c0.6-0.4,1.2-0.7,2.8-1.2c0,0,0-0.6,0-0.7        C28.3,19.3,27.5,19.6,26.5,20.2"></path>    <path fill="#FFFFFF" d="M26.3,22.5c0.1-0.1,0.2-0.1,0.2-0.1c0.8-0.5,1.8-1.2,3.4-1.4c0-0.1-0.1-0.6-0.1-0.7        c-1.5,0.3-2.3,0.8-3.4,1.5C26.3,22.1,26.3,22.3,26.3,22.5"></path>    <path fill="#FFFFFF" d="M26.2,21.9c-0.4-0.1-1-0.1-1.2-0.1c-1.7,0-3.2,0.8-4.5,1.5l-0.4,0.2l0.2,0.5c0.1,0,0.9-0.4,0.9-0.4        c1.6-0.8,3.4-1.7,5-1.1C26.1,22.3,26.2,22.1,26.2,21.9"></path>    <path fill="#FFFFFF" d="M26.3,24.1c0.1,0,0.1-0.1,0.1-0.1c1.1-0.7,2.2-1.4,3.7-1.6c0-0.1-0.1-0.3-0.1-0.4s0-0.2,0-0.3        c-1.3,0.3-2.4,0.8-3.7,1.6C26.3,23.6,26.3,23.8,26.3,24.1"></path>    <path fill="#FFFFFF" d="M26.1,23.4L26.1,23.4c-1.9-0.7-3.8,0.4-5.6,1.5c0,0.1,0,0.2,0,0.3c0,0.1,0,0.2,0.1,0.3        c1.7-1.1,3.5-2,5.5-1.4C26.2,23.9,26.1,23.7,26.1,23.4"></path>    <path fill="#FFFFFF" d="M30.3,23.3c-1.5,0.4-2.7,1-3.9,1.8c0,0.2,0.1,0.4,0.1,0.6c0.1-0.1,0.4-0.2,0.4-0.2c1.1-0.6,2.2-1.4,3.6-1.6        C30.5,23.9,30.3,23.3,30.3,23.3"></path>    <path fill="#FFFFFF" d="M26.2,24.8c-1.9-0.4-3.3,0.4-5.1,1.5l-0.2,0.1v0.1c0,0,0.1,0.4,0.2,0.5c0.1,0,0.7-0.4,0.7-0.4        c1.3-0.8,2.6-1.6,4.5-1.2C26.3,25.2,26.2,25,26.2,24.8"></path>    <path fill="#FFFFFF" d="M26.4,26.1c-1.7-0.3-2.9,0.4-4.3,1.3l-0.8,0.5V28c0,0,0.2,0.4,0.2,0.5c0.1,0,0.7-0.4,0.7-0.4        c1.4-0.9,2.5-1.6,4.3-1.4C26.4,26.4,26.4,26.3,26.4,26.1"></path></svg>