<svg viewBox="0 0 48 48" width="100%" height="100%">    <path fill-rule="evenodd" clip-rule="evenodd" fill="#FFFFFF" d="M20,0c11,0,20,9,20,20c0,11-9,20-20,20C9,40,0,31,0,20        C0,9,9,0,20,0L20,0z"></path>    <path fill-rule="evenodd" clip-rule="evenodd" fill="#006437" d="M20,0.6c10.7,0,19.4,8.7,19.4,19.4c0,10.7-8.7,19.4-19.4,19.4        C9.3,39.4,0.6,30.7,0.6,20C0.6,9.3,9.3,0.6,20,0.6L20,0.6z M20,1.1c10.5,0,18.9,8.5,18.9,18.9c0,10.5-8.5,18.9-18.9,18.9        C9.5,38.9,1.1,30.5,1.1,20C1.1,9.5,9.5,1.1,20,1.1L20,1.1z"></path>    <path fill-rule="evenodd" clip-rule="evenodd" fill="#006437" d="M20,1.6c10.2,0,18.4,8.2,18.4,18.4c0,10.2-8.2,18.4-18.4,18.4        C9.8,38.4,1.6,30.2,1.6,20C1.6,9.8,9.8,1.6,20,1.6L20,1.6z M20,3.3c5.6,0,10.1,4.5,10.1,10.1c0,5.6-4.5,10.1-10.1,10.1        c-5.6,0-10.1-4.5-10.1-10.1C9.9,7.8,14.4,3.3,20,3.3L20,3.3z M9.7,17.7c0.1,0.4,0.6,1.2,0.8,1.5c0.4,0.7,0.1,1.4-0.7,1.9l-1.7,0.9        c-0.8,0.4-2.3,0.2-2.6-0.9c-0.1-0.4-0.2-0.7-0.3-1l-2.4,0.7c-0.1-0.9-0.1-1,0-1.8L9.7,17.7L9.7,17.7z M9,19l-2.3,0.6        c0,0.2,0.1,0.4,0.1,0.6c0.2,0.6,0.4,0.5,1.1,0.3l0.8-0.3c0.3-0.2,0.7-0.3,0.5-0.7C9.1,19.2,9,19,9,19L9,19z M11.9,21.1        c0.3,0.3,0.6,0.6,0.9,0.9l-6.4,8.6c-0.4-0.5-0.8-1.2-1.2-1.8L7,26.8c-0.4-0.6-0.7-1.1-1.1-1.9l-2.1,0.9c-0.2-0.6-0.4-1.3-0.5-1.7        L11.9,21.1L11.9,21.1z M10.5,23l-3.3,1.4c0.2,0.5,0.5,0.9,0.8,1.3L10.5,23L10.5,23z M6.6,30.8l7.3-8c0,0,0.7,0.4,1,0.6l-5.6,7.5        c0.6,0.6,0.8,0.8,1.5,1.3l-1,1.7C8.7,33,7.3,31.7,6.6,30.8L6.6,30.8z M10.2,34.1l5.6-10.4c0.3,0.1,0.7,0.3,1,0.4l-0.6,5.3        c0.2-0.4,2.1-5,2.1-5c0.3,0,0.9,0.1,1.1,0.1l-0.8,12.6c-0.6,0-1.6-0.2-2.3-0.3l1.1-6.4l-2.7,4.3l-0.1-5.3c-0.2,0.7-2.5,5.8-2.5,5.8        C11.4,34.9,10.8,34.5,10.2,34.1L10.2,34.1z M22.1,24.4c-0.8,0.1-1.2,0.2-2.2,0.2l-0.3,12.6c2,0.1,4-0.3,5.7-0.8l-0.6-2.1        c-0.9,0.3-1.8,0.5-2.7,0.6l-0.5-4.3c0.9-0.1,1.4-0.2,2.1-0.4l-0.4-1.6c-0.6,0.2-1.2,0.3-1.8,0.3l-0.4-3.1c0.5,0,1-0.1,1.4-0.2        L22.1,24.4L22.1,24.4z M22.5,24.3c0.4-0.1,0.6-0.2,1-0.3l4.9,11c-0.7,0.4-1.5,0.8-2.3,1.1L22.5,24.3L22.5,24.3z M29.1,34.6        l-5.2-10.7c0.7-0.2,1.2-0.5,1.8-0.9c0.7-0.5,1.3,0,1.9,0.6l1.5,1.4c1.5,1.4,1.2,2.4,0.9,2.7l3.8,2.5c-0.4,0.6-0.8,1.1-1.3,1.5        l-3.7-3L28.4,29l2.8,4.1C30.6,33.6,29.8,34.2,29.1,34.6L29.1,34.6z M27.6,27.7c0.7-0.5,1.2-0.8,0.3-1.9l-1-1.3        c-0.6-0.8-1-0.4-1.4-0.2L27.6,27.7L27.6,27.7z M28.3,20.9c-0.3,0.3-0.5,0.5-0.8,0.8L34,30c0.4-0.5,0.8-1.2,1.1-1.8l-1.8-1.8        c0.4-0.6,0.6-1,0.9-1.7l2,0.9c0.2-0.6,0.4-1.1,0.5-1.7L28.3,20.9L28.3,20.9z M29.9,22.8l3,1.2c-0.2,0.5-0.4,0.7-0.7,1.2L29.9,22.8        L29.9,22.8z M31.8,19.1c0.2-0.3,0.3-0.7,0.4-1c-0.4-0.1-0.6-0.1-0.9-0.2c-0.7-0.1-1.1,0.1-1.3,0.4c-0.2,0.3-0.3,0.6-0.5,1        c-0.2,0.4-0.1,1.1,1,1.6c1,0.4,1.7,0.9,3.2-0.4c0.9-0.7,1.2-0.5,1.6-0.4c0.5,0.2,0.5,0.4,0.4,0.8c-0.1,0.6-0.8,0.3-1.2,0.2        c-0.1,0.5-0.3,0.9-0.5,1.4c0.2,0.1,0.5,0.2,0.7,0.3c1,0.4,2.2,0.2,2.5-1.1c0.2-0.8,0.1-1.2,0.1-1.4c0-0.8-0.6-1.5-1.6-1.6        c-1-0.2-1.6-0.2-3,0.8c-0.7,0.5-0.8,0.7-1.4,0.5c-0.3-0.1-0.7-0.2-0.5-0.6C31.1,18.9,31.2,18.9,31.8,19.1L31.8,19.1z M10.5,6.2        l-0.2,0.5l0.4,0.4l-0.6-0.1L9.8,7.6L9.7,7.1L9.1,7l0.5-0.3L9.5,6.1L10,6.5L10.5,6.2L10.5,6.2z M8.8,8.1L8.7,8.8l0.6,0.4L8.5,9.3        L8.3,9.9L8,9.3l-0.7,0l0.5-0.5L7.6,8.1l0.6,0.4L8.8,8.1L8.8,8.1z M7.4,10.5l0,0.9l0.8,0.4L7.3,12l-0.1,0.9l-0.5-0.7l-0.9,0.2        l0.5-0.7l-0.4-0.8l0.9,0.3L7.4,10.5L7.4,10.5z M6.4,13.5l0.3,1.1l1.1,0.2l-1,0.6L7,16.6l-0.9-0.7l-1,0.5l0.4-1.1l-0.8-0.8l1.1,0.1        L6.4,13.5L6.4,13.5z M33.6,13.5l-0.3,1.1l-1.1,0.2l1,0.6L33,16.6l0.9-0.7l1,0.5l-0.4-1.1l0.8-0.8l-1.1,0.1L33.6,13.5L33.6,13.5z        M32.6,10.5l0,0.9l-0.8,0.4l0.9,0.3l0.1,0.9l0.5-0.7l0.9,0.2l-0.5-0.7l0.4-0.8l-0.9,0.3L32.6,10.5L32.6,10.5z M31.2,8.1l0.2,0.7        l-0.6,0.4l0.7,0.1l0.2,0.7L32,9.3l0.7,0l-0.5-0.5l0.2-0.7l-0.6,0.4L31.2,8.1L31.2,8.1z M29.5,6.2l0.2,0.5l-0.4,0.4l0.6-0.1l0.3,0.5        l0.1-0.6L30.9,7l-0.5-0.3l0.1-0.6L30,6.5L29.5,6.2L29.5,6.2z"></path>    <path fill-rule="evenodd" clip-rule="evenodd" fill="#006437" d="M20,3.8c5.3,0,9.5,4.3,9.5,9.5c0,5.3-4.3,9.5-9.5,9.5        c-5.3,0-9.5-4.3-9.5-9.5C10.5,8.1,14.7,3.8,20,3.8L20,3.8z M27.6,8.1c0.1,5.6-2.6,11.3-7.5,14.7c5.1-0.1,9.2-4.2,9.2-9.3        C29.3,11.4,28.7,9.6,27.6,8.1L27.6,8.1z M19.8,22.7c-4.7-3.3-7.6-9.1-7.5-14.7c-1.1,1.5-1.7,3.4-1.7,5.4        C10.7,18.5,14.8,22.6,19.8,22.7L19.8,22.7z M12.5,7.9c2.2-0.5,4.9-1.7,7.4-3.8C16.9,4.1,14.2,5.6,12.5,7.9L12.5,7.9z M20.1,4.1        c2.4,2.1,5.1,3.3,7.4,3.8C25.8,5.6,23.1,4.1,20.1,4.1L20.1,4.1z M27.4,8c-4.4-1-7-3.4-7.4-3.8c-0.4,0.4-3.2,2.8-7.4,3.8        c-0.1,9.3,6.8,14.1,7.4,14.6C20.6,22.2,27.5,17.6,27.4,8L27.4,8z"></path>    <path fill="#006437" d="M26.8,8.4c0.2,5.2-2.5,10.5-6.8,13.5c-4.3-3-7-8.4-6.8-13.5c2-0.5,4.6-1.5,6.8-3.5        C22.2,6.9,24.8,7.9,26.8,8.4L26.8,8.4z M19.4,5.7h1.2c-0.3-0.2-0.5-0.4-0.6-0.5C19.9,5.2,19.7,5.4,19.4,5.7L19.4,5.7z M20.7,5.7        h-1.4c-0.2,0.2-0.5,0.3-0.8,0.5h2.9C21.1,6.1,20.9,5.9,20.7,5.7L20.7,5.7z M21.6,6.3h-3.1c-0.3,0.2-0.6,0.4-0.9,0.5h2        c-0.1,0-0.1,0-0.1,0.1h-2c-0.3,0.2-0.7,0.4-1.1,0.5h2.3c0,0-0.1,0.1-0.1,0.1h-2.4c-0.4,0.2-0.9,0.4-1.4,0.5h1.8c0,0,0,0-0.1,0.1h-2        c-0.4,0.1-0.8,0.2-1.2,0.3c0,0.1,0,0.1,0,0.2h3.8c0,0,0,0,0.1,0.1h-3.9c0,0.2,0,0.4,0,0.5h3.9v0.1h-3.9c0,0.2,0,0.4,0,0.5h3.9V10        h-3.9c0,0.2,0,0.4,0.1,0.5h3.8v0.1h-3.8c0,0.2,0,0.4,0.1,0.5h3.7v0.1h-3.7c0,0.2,0.1,0.4,0.1,0.5h3.4h0.2h0l-0.1,0.1h0H17h-3.3        c0,0.2,0.1,0.4,0.1,0.5h3.3l0.1,0.1h-3.3c0,0.2,0.1,0.4,0.1,0.6h3.3v0.1H14c0.1,0.2,0.1,0.4,0.2,0.5h3.1v0.1h-3.1        c0.1,0.2,0.1,0.4,0.2,0.5h2.9v0.1h-2.9c0.1,0.2,0.1,0.4,0.2,0.5h2.7V15h-2.6c0.1,0.2,0.2,0.4,0.2,0.5h2.4v0.1h-2.3        c0.1,0.2,0.2,0.4,0.3,0.5h2.1v0.1h-2c0.1,0.2,0.2,0.4,0.3,0.5h1.7c0,0,0,0.1,0,0.1h-1.7c0.1,0.2,0.2,0.4,0.3,0.5h1.2        c0,0,0,0.1-0.1,0.1h-1c0.1,0.2,0.2,0.4,0.4,0.5h0.5c0,0,0.1,0.1,0.1,0.1h-0.5c0.1,0.2,0.3,0.4,0.4,0.5H18c0,0,0,0.1,0,0.1h-1.1        c0.2,0.2,0.3,0.4,0.4,0.5h1.1c0,0,0.1,0.1,0.1,0.1h-1.1c0.2,0.2,0.3,0.4,0.5,0.5h4.2c0.2-0.2,0.3-0.3,0.5-0.5h-2.7        c0,0-0.1-0.1-0.1-0.1h2.9c0.1-0.2,0.3-0.4,0.5-0.5h-3.8c0,0,0-0.1,0-0.1h3.9c0.1-0.2,0.3-0.4,0.4-0.5h-4.5c0,0,0-0.1,0-0.1h4.5        c0.1-0.2,0.2-0.4,0.4-0.5h-5c0,0,0-0.1,0-0.1h5c0.1-0.2,0.2-0.4,0.3-0.5H19c0,0,0-0.1,0-0.1h5.4c0.1-0.2,0.2-0.3,0.3-0.5H19v-0.1        h5.8c0.1-0.2,0.2-0.4,0.3-0.5H19v-0.1h6.1c0.1-0.2,0.2-0.4,0.2-0.5H19v-0.1h6.4c0.1-0.2,0.1-0.4,0.2-0.5H22c0,0,0.1,0,0.1,0        c0,0,0.1,0,0.1,0h3.5c0.1-0.2,0.1-0.4,0.2-0.5H23c0,0,0.1-0.1,0.1-0.1h2.8c0.1-0.2,0.1-0.4,0.2-0.5h-2.5c0,0,0-0.1,0.1-0.1h2.5        c0.1-0.2,0.1-0.4,0.1-0.6h-2.3c0,0,0-0.1,0-0.1h2.3c0-0.2,0.1-0.4,0.1-0.5h-2.3c0,0,0-0.1,0-0.1h2.2c0-0.2,0.1-0.4,0.1-0.5h-2.2        c0,0,0-0.1,0-0.1h2.2c0-0.2,0.1-0.4,0.1-0.5h-2.3c0,0,0-0.1,0-0.1h2.3c0-0.2,0-0.4,0.1-0.5h-2.4c0,0,0-0.1,0-0.1h2.4        c0-0.2,0-0.4,0-0.5h-2.6c0,0,0-0.1,0-0.1h2.6c0-0.2,0-0.4,0-0.5h-2.8c0,0,0-0.1,0-0.1h2.8c0-0.1,0-0.1,0-0.2        c-0.4-0.1-0.8-0.2-1.2-0.3h-1.9c0,0,0-0.1-0.1-0.1h1.8c-0.5-0.2-1-0.4-1.4-0.5H23c0,0-0.1-0.1-0.1-0.1h0.7c-0.4-0.2-0.7-0.4-1.1-0.5        h-0.5c-0.1,0-0.1-0.1-0.2-0.1h0.5C22.1,6.7,21.8,6.5,21.6,6.3L21.6,6.3z M19.5,6.9h0.2C19.6,6.9,19.6,6.9,19.5,6.9L19.3,7        C19.4,6.9,19.4,6.9,19.5,6.9L19.5,6.9z M18.6,7.5h0.2c0,0-0.1,0.1-0.1,0.1L18.6,7.5C18.5,7.6,18.5,7.5,18.6,7.5L18.6,7.5z M16.5,8.1        h0.1C16.6,8.1,16.6,8.2,16.5,8.1L16.5,8.1C16.5,8.2,16.5,8.1,16.5,8.1L16.5,8.1z M17.2,8.7h0.2c0,0,0,0,0,0.1L17.2,8.7        C17.2,8.8,17.2,8.8,17.2,8.7L17.2,8.7z M17.3,9.4L17.3,9.4L17.3,9.4L17.3,9.4L17.3,9.4L17.3,9.4z M17.3,10L17.3,10L17.3,10L17.3,10        L17.3,10L17.3,10z M17.3,10.6L17.3,10.6L17.3,10.6L17.3,10.6L17.3,10.6L17.3,10.6z M17.3,11.2L17.3,11.2L17.3,11.2L17.3,11.2        L17.3,11.2L17.3,11.2z M17.1,12.4h0.1l0.1,0.1L17.1,12.4L17.1,12.4L17.1,12.4z M17.3,13.1L17.3,13.1L17.3,13.1L17.3,13.1L17.3,13.1        L17.3,13.1z M17.3,13.7L17.3,13.7L17.3,13.7L17.3,13.7L17.3,13.7L17.3,13.7z M17.3,14.3L17.3,14.3L17.3,14.3L17.3,14.3L17.3,14.3        L17.3,14.3z M17.3,14.9L17.3,14.9L17.3,14.9L17.3,14.9L17.3,14.9L17.3,14.9z M17.3,15.5L17.3,15.5L17.3,15.5L17.3,15.5L17.3,15.5        L17.3,15.5z M17.3,16.1L17.3,16.1L17.3,16.1L17.3,16.1L17.3,16.1L17.3,16.1z M17.3,16.8L17.3,16.8L17.3,16.8L17.3,16.8        C17.3,16.8,17.3,16.8,17.3,16.8L17.3,16.8z M17.1,17.4h0.2c0,0,0,0,0,0.1c0,0,0,0,0,0L17.1,17.4C17.1,17.4,17.1,17.4,17.1,17.4        L17.1,17.4z M16.8,18H17c0,0,0.1,0.1,0.1,0.1L16.8,18C16.9,18,16.9,18,16.8,18L16.8,18z M18,18.6h0.2c0,0,0,0.1,0,0.1L18,18.6        C18,18.7,18,18.6,18,18.6L18,18.6z M18.4,19.2h0.2c0,0,0.1,0.1,0.1,0.1L18.4,19.2C18.5,19.3,18.5,19.2,18.4,19.2L18.4,19.2z        M19.9,19.3h-0.2c0,0-0.1-0.1-0.1-0.1L19.9,19.3C19.8,19.2,19.9,19.3,19.9,19.3L19.9,19.3z M19.4,18.7h-0.1c0,0,0-0.1,0-0.1        L19.4,18.7C19.3,18.6,19.4,18.7,19.4,18.7L19.4,18.7z M19.1,18.1H19c0,0,0-0.1,0-0.1L19.1,18.1C19.1,18,19.1,18,19.1,18.1L19.1,18.1        z M19,17.4h-0.2l0,0l0-0.1L19,17.4C19,17.4,19,17.4,19,17.4L19,17.4z M19,16.8h-0.1v-0.1L19,16.8C19,16.8,19,16.8,19,16.8L19,16.8z        M19,16.2h-0.1v-0.1L19,16.2L19,16.2L19,16.2z M19,15.6h-0.1v-0.1L19,15.6L19,15.6L19,15.6z M19,15h-0.1l0-0.1L19,15L19,15L19,15z        M22,14.4h-0.6c0.1,0,0.3,0,0.5-0.1h0.4c0,0-0.1,0-0.1,0C22,14.3,22,14.4,22,14.4L22,14.4z M23,13.8h-0.1C22.9,13.7,23,13.7,23,13.8        L23,13.8C23.1,13.7,23,13.7,23,13.8L23,13.8z M23.5,13.1L23.5,13.1C23.5,13.1,23.5,13.1,23.5,13.1L23.5,13.1        C23.6,13.1,23.6,13.1,23.5,13.1L23.5,13.1z M23.9,12.5L23.9,12.5C23.8,12.5,23.8,12.5,23.9,12.5L23.9,12.5        C23.9,12.5,23.9,12.5,23.9,12.5L23.9,12.5z M24.1,11.9L24.1,11.9C24,11.9,24,11.9,24.1,11.9L24.1,11.9        C24.1,11.9,24.1,11.9,24.1,11.9L24.1,11.9z M24.2,11.3L24.2,11.3C24.2,11.3,24.2,11.2,24.2,11.3L24.2,11.3        C24.2,11.2,24.2,11.3,24.2,11.3L24.2,11.3z M24.2,10.7L24.2,10.7C24.2,10.6,24.2,10.6,24.2,10.7L24.2,10.7        C24.2,10.6,24.2,10.6,24.2,10.7L24.2,10.7z M24.2,10L24.2,10C24.2,10,24.2,10,24.2,10L24.2,10C24.2,10,24.2,10,24.2,10L24.2,10z        M24.1,9.4L24.1,9.4C24.1,9.4,24,9.4,24.1,9.4L24.1,9.4C24.1,9.4,24.1,9.4,24.1,9.4L24.1,9.4z M23.9,8.8L23.9,8.8        C23.8,8.8,23.8,8.8,23.9,8.8L23.9,8.8C23.9,8.8,23.9,8.8,23.9,8.8L23.9,8.8z M23.5,8.2L23.5,8.2C23.5,8.2,23.5,8.1,23.5,8.2        L23.5,8.2C23.5,8.1,23.5,8.2,23.5,8.2L23.5,8.2z M23,7.6L23,7.6c-0.1,0-0.1-0.1-0.1-0.1L23,7.6C23,7.5,23,7.6,23,7.6L23,7.6z        M22.1,7H22c-0.1,0-0.1-0.1-0.2-0.1h0.2C22,6.9,22.1,6.9,22.1,7L22.1,7z M18.9,13.1H19v0.1L18.9,13.1L18.9,13.1L18.9,13.1z M19,13.1        h0.3c0,0,0,0.1,0,0.1L19,13.1L19,13.1L19,13.1z M19.3,13.1h0.1c0,0,0,0.1,0,0.1L19.3,13.1C19.3,13.1,19.3,13.1,19.3,13.1L19.3,13.1z        M18.9,13.7H19v0.1L18.9,13.7L18.9,13.7L18.9,13.7z M19,13.7h0.5c0,0,0,0.1,0,0.1L19,13.7L19,13.7L19,13.7z M19.5,13.7h0.2        c0,0,0,0.1,0.1,0.1L19.5,13.7C19.6,13.7,19.5,13.7,19.5,13.7L19.5,13.7z M18.9,14.3H19v0.1L18.9,14.3L18.9,14.3L18.9,14.3z M19,14.3        h1.1c0,0,0.1,0.1,0.1,0.1L19,14.3L19,14.3L19,14.3z M20.1,14.3h0.5c0.1,0,0.3,0.1,0.4,0.1h-0.8C20.2,14.4,20.2,14.3,20.1,14.3        L20.1,14.3z M19.5,8.1h0.1C19.6,8.1,19.5,8.2,19.5,8.1L19.5,8.1C19.4,8.2,19.4,8.1,19.5,8.1L19.5,8.1z M19.6,8.1h2.2        c0,0,0.1,0.1,0.1,0.1L19.6,8.1C19.5,8.2,19.6,8.1,19.6,8.1L19.6,8.1z M21.8,8.1H22c0,0,0,0.1,0.1,0.1L21.8,8.1        C21.8,8.2,21.8,8.1,21.8,8.1L21.8,8.1z M19.1,8.7h0.1C19.2,8.8,19.2,8.8,19.1,8.7L19.1,8.7C19,8.8,19,8.8,19.1,8.7L19.1,8.7z        M19.2,8.7h3c0,0,0,0.1,0,0.1L19.2,8.7C19.2,8.8,19.2,8.8,19.2,8.7L19.2,8.7z M22.2,8.7h0.1c0,0,0,0.1,0,0.1L22.2,8.7        C22.2,8.8,22.2,8.8,22.2,8.7L22.2,8.7z M18.9,9.4H19c0,0,0,0.1,0,0.1L18.9,9.4C18.9,9.4,18.9,9.4,18.9,9.4L18.9,9.4z M19,9.4h3.4        c0,0,0,0.1,0,0.1L19,9.4C19,9.4,19,9.4,19,9.4L19,9.4z M22.4,9.4h0.1c0,0,0,0.1,0,0.1L22.4,9.4C22.4,9.4,22.4,9.4,22.4,9.4L22.4,9.4        z M18.9,10H19V10L18.9,10L18.9,10L18.9,10z M19,10h3.3c0,0,0,0.1,0,0.1L19,10L19,10L19,10z M22.4,10h0.1c0,0,0,0.1,0,0.1L22.4,10        C22.3,10,22.3,10,22.4,10L22.4,10z M18.9,10.6H19v0.1L18.9,10.6L18.9,10.6L18.9,10.6z M19,10.6h3c0,0,0,0,0,0c0,0,0,0,0,0.1L19,10.6        L19,10.6L19,10.6z M22,10.6h0.2c0,0,0,0,0,0c0,0,0,0,0,0.1L22,10.6C22,10.6,22,10.6,22,10.6C22,10.6,22,10.6,22,10.6L22,10.6z        M18.9,11.2H19v0.1L18.9,11.2L18.9,11.2L18.9,11.2z M19,11.2h3.2c0,0,0,0.1,0,0.1L19,11.2L19,11.2L19,11.2z M22.3,11.2h0.1        c0,0,0,0.1,0,0.1L22.3,11.2C22.3,11.3,22.3,11.2,22.3,11.2L22.3,11.2z M18.9,11.8H19v0.1L18.9,11.8L18.9,11.8L18.9,11.8z M19,11.8        h0.7c0,0-0.1,0-0.1,0.1L19,11.8L19,11.8L19,11.8z M19.7,11.8H20c-0.1,0-0.1,0-0.2,0.1L19.7,11.8C19.7,11.9,19.7,11.9,19.7,11.8        L19.7,11.8z M20.7,11.8h0.3c0,0,0.1,0,0.1,0.1h-0.2C20.7,11.9,20.7,11.8,20.7,11.8L20.7,11.8z M20.9,11.8h1.5c0,0,0,0.1,0,0.1        L20.9,11.8C21,11.9,21,11.9,20.9,11.8L20.9,11.8z M22.4,11.8h0.1c0,0,0,0.1,0,0.1L22.4,11.8C22.4,11.9,22.4,11.9,22.4,11.8        L22.4,11.8z M18.9,12.4H19v0.1L18.9,12.4L18.9,12.4L18.9,12.4z M19,12.4h0.3c0,0,0,0.1,0,0.1L19,12.4L19,12.4L19,12.4z M19.3,12.4        L19.3,12.4C19.4,12.5,19.4,12.5,19.3,12.4L19.3,12.4C19.3,12.5,19.3,12.5,19.3,12.4L19.3,12.4z M21.1,12.4h0.1c0,0,0,0.1,0,0.1        L21.1,12.4C21.1,12.5,21.1,12.5,21.1,12.4L21.1,12.4z M21.2,12.4h1.1c0,0,0,0.1,0,0.1L21.2,12.4C21.2,12.5,21.2,12.5,21.2,12.4        L21.2,12.4z M22.3,12.4h0.1c0,0,0,0.1,0,0.1L22.3,12.4C22.3,12.5,22.3,12.5,22.3,12.4L22.3,12.4z M21,13.1L21,13.1        C21,13.1,21,13.1,21,13.1l-0.1,0.1C20.9,13.1,20.9,13.1,21,13.1L21,13.1z M21,13.1h1c0,0,0,0.1-0.1,0.1L21,13.1        C21,13.1,21,13.1,21,13.1L21,13.1z M22,13.1h0.2c0,0,0,0.1,0,0.1L22,13.1C22,13.1,22,13.1,22,13.1L22,13.1z M22,19.9H18        c0.2,0.2,0.4,0.4,0.5,0.5h3C21.7,20.3,21.9,20.1,22,19.9L22,19.9z M21.4,20.5h-2.8c0.2,0.2,0.4,0.4,0.6,0.5h1.6        C21,20.9,21.2,20.7,21.4,20.5L21.4,20.5z M20.7,21.1h-1.4c0.4,0.3,0.6,0.5,0.7,0.5C20.1,21.6,20.4,21.4,20.7,21.1L20.7,21.1z        M16.6,8.3c0.4,0,0.9,0.2,0.9,0.8v2.6L17,12.1l0.5,0.4v4.2c0,0.3-0.1,0.8-0.6,1c0.4,0.5,0.7,0.4,1.2,0.1c0.1,1.3,1.1,1.7,1.8,1.6        c-0.9-0.6-1-1.7-1-2.6V9.5c0-0.7,0.5-2,1.9-2c1.5,0,2.4,2,1.5,3.1c1.6,2.9-2.2,4.4-2.3,2.2c1.2,1,1.5-0.9,0.5-1        c-1.7-0.1-1.1,3.5,1.7,2.3c2.9-1.2,2.8-7.2-1.5-7.3c-1,0-1.9,0.8-2.5,1.5C17.6,7.9,17.1,7.8,16.6,8.3L16.6,8.3z M17.3,11.6V9.1        c0-0.5-0.6-0.6-1-0.6c0.5-0.7,1.1-1,1.8-0.4c0.4-0.6,1.5-1.5,2.5-1.4c4.5,0.1,4.7,6.5,1.5,7.7c-3.1,1.1-3.6-2.8-1.6-2.7        c1.3,0.1,0.9,2.2-0.3,1.5c0.4,1.3,3.3,0,1.8-2.6c1-1,0.1-2.9-1.3-2.9c-1.2,0-1.7,1.1-1.7,1.9l0,7.2c0,1.3,0.2,2.3,1.2,2.8        c-1.1,0.5-2.2-0.2-2.4-1.3c-0.5,0.2-0.9,0.1-1.3-0.6c0.4-0.1,0.7-0.3,0.7-0.9v-4.1l-0.5-0.5L17.3,11.6L17.3,11.6z"></path></svg>