<svg viewBox="0 0 48 48" width="100%" height="100%">    <path d="M38.2,0c-0.3,0.1-0.5,0.3-0.8,0.4c-3.7,2-8.2,3-13.4,3c-5.3,0-9.7-1-13.4-3C10.3,0.3,10,0.1,9.8,0L3,7.5        c4,3,3.8,7.8-0.4,14.4c-2.6,4-3.2,8.3-1.8,12.7c1.8,5.5,6,8.5,12.6,8.9c4.2,0.3,7.7,1.8,10.6,4.5c2.9-2.7,6.5-4.2,10.6-4.5        c6.7-0.4,10.9-3.4,12.6-8.9c1.4-4.4,0.8-8.6-1.8-12.7C41.2,15.3,41,10.5,45,7.5L38.2,0z"></path>    <path fill="#FFFFFF" d="M10.2,1.2c-0.1,0-0.2-0.1-0.2-0.1L4.2,7.4c3.7,3.3,3.4,8.3-1,15c-0.3,0.4-0.5,0.8-0.7,1.2L34,2.8        c-2.9,1-6.3,1.4-9.9,1.4C18.6,4.2,14,3.2,10.2,1.2"></path>    <path fill="#FFFFFF" d="M2.4,36.4L4,35.3v3.5C3.4,38.1,2.8,37.3,2.4,36.4z M17.3,43.2c1.6,0.4,3.1,1.1,4.4,1.9l0.1-21.6l-4.5,2.9        V43.2z M8.4,41.6c1.3,0.5,2.8,0.8,4.5,1V29.4l-4.5,2.9V41.6z M35.1,14.7v27.9c1.7-0.2,3.1-0.5,4.5-1V11.8L35.1,14.7z M26.2,45.2        c1.4-0.9,2.9-1.5,4.5-1.9V17.7l-4.5,2.9V45.2z"></path>    <path fill="#FFFFFF" d="M44.7,22.4c-0.3-0.4-0.5-0.8-0.7-1.1v17.5c1.1-1.2,1.9-2.7,2.5-4.4C47.8,30.2,47.2,26.2,44.7,22.4"></path>    <path fill="#FFFFFF" d="M13.2,25.2l2.1-1.4V26l-2.1,1.4V25.2z M11.5,20.1c-0.2-0.1-0.4-0.1-0.7,0l-5.4,3.4c-0.6,0.4-0.8,0.7-0.7,1.2        v2.9c0,0.4,0.2,0.7,0.5,0.7s0.7-0.1,1.2-0.5l2.2-1.5c0.4-0.2,0.7-0.2,0.8,0v1.9l-1.8,1.2c-0.3,0.2-0.4,0-0.4-0.4v-1l-2.5,1.6v1.9        c0,0.8,0.3,1.1,1,0.7l5.4-3.6c0.5-0.3,0.7-0.8,0.7-1.6v-2.7c-0.4-0.6-1-0.7-1.8-0.3l-2.4,1.5c-0.2,0.1-0.4,0-0.4-0.3v-0.8        c0-0.1,0-0.2,0.1-0.4c0.1-0.1,0.2-0.2,0.4-0.4l1.2-0.8c0.3-0.2,0.4-0.1,0.5,0.1v0.6l2.4-1.5v-1.6C11.7,20.3,11.7,20.2,11.5,20.1z        M16.9,17.8l1-0.6v5.5l-1,0.7v1.5l5-3.2v-1.6L20.6,21v-2.1l1.3-0.9v1.2l1.3-1v-3.4L22,15.7v0.6l-1.4,0.8v-1.7l1.8-1.2l0.4,0.2        l1.6-1.1v-2.2l-7.5,5V17.8z M37.3,9.5v2.2l2.2-1.5V8.1L37.3,9.5z M25,19.6l2.2-1.4v-2.1L25,17.5V19.6z M33.4,12L32,13        c-0.2,0.1-0.3,0.1-0.4,0c-0.1-0.1-0.1-0.3-0.1-0.5l-0.1-3.4c0-0.2,0.1-0.3,0.2-0.5l1.5-1.1c0.3-0.3,0.5-0.3,0.5,0v0.4l2.3-1.5V4.3        c-0.1-0.3-0.4-0.4-0.8-0.2L29.3,8c-0.4,0.4-0.5,0.8-0.5,1.2v6.6c0.1,0.8,0.5,1.1,1.2,0.7l5.1-3.3c0.5-0.4,0.8-1,0.9-1.6V8.5        l-2.6,1.6V12z"></path>    <path d="M16.8,5.4c-1-1-2.2-1.6-3.7-1.6c-1.4,0-2.7,0.5-3.7,1.6c-1,1-1.5,2.3-1.5,3.7c0,1.5,0.5,2.7,1.5,3.7        c0.1,0.1,0.1,0.1,0.2,0.2c1,0.9,2.1,1.4,3.5,1.4c1.4,0,2.7-0.5,3.7-1.6c0.9-1,1.5-2.2,1.5-3.7S17.8,6.4,16.8,5.4z M16.4,5.7        c0.7,0.7,1.1,1.5,1.3,2.5c0,0.1,0,0.1-0.1,0.2c-0.5,1.4-1.2,2.2-2.2,2.4c1.1-1.6,1.1-3.6-0.1-5.9C15.7,5.1,16,5.4,16.4,5.7z        M13.1,4.3c0.5,0,1,0.1,1.5,0.2c1.3,2.3,1.4,4.3,0.4,5.9c0,0,0,0-0.1,0c0.3-2.2-0.4-4.2-2.1-6.1C12.9,4.3,13,4.3,13.1,4.3z M15.1,11        C15.1,11,15.1,11,15.1,11c0,0.2,0,0.2-0.1,0.3l-0.1,0.1c-0.1,0.1-0.2,0.2-0.4,0.2c-0.2,0.1-0.4,0.1-0.5,0.1c0,0,0,0-0.1,0        c-0.1,0-0.2-0.1-0.2-0.1c0-0.1,0-0.2,0.1-0.3c0.1-0.1,0.3-0.3,0.5-0.3c0.1-0.2,0.2-0.2,0.3-0.2c0.1,0,0.1,0,0.2,0        C14.9,10.8,14.9,10.8,15.1,11C15,10.9,15,10.9,15.1,11z M12.2,4.4c1.8,1.8,2.5,3.9,2.2,6.1c-0.1,0-0.2,0-0.3,0.1        c-0.2,0.1-0.4,0.2-0.5,0.3c-2.5-0.4-3.7-2.2-3.7-5.3C10.6,5,11.3,4.6,12.2,4.4z M8.4,9.1c0-1.1,0.3-2.1,1-3c0.1,3,1.4,4.7,3.9,5.2        c-1.6,0.5-3.2,0.1-4.8-1C8.4,9.9,8.4,9.5,8.4,9.1z M8.8,11.2c1.5,0.8,3,1.1,4.6,0.7c-0.7,0.8-2,1-3.6,0.7        C9.4,12.2,9.1,11.7,8.8,11.2z M13.6,13.9c-0.2,0-0.4,0-0.6,0c-0.9,0-1.8-0.2-2.5-0.7c1.7,0.1,2.9-0.3,3.6-1.2c0.1,0,0.1,0,0.2,0        C14.4,12.8,14.2,13.4,13.6,13.9z M14.4,13.7c0.3-0.5,0.4-1.2,0.4-1.9c0,0,0.1,0,0.1-0.1c0.5,0.5,1,0.7,1.5,0.8        C15.8,13.1,15.2,13.5,14.4,13.7z M15.3,11.4c1.1-0.2,1.9-0.9,2.5-2.1c0,1-0.4,1.9-0.9,2.7C16.3,12,15.8,11.8,15.3,11.4z"></path></svg>