<svg viewBox="0 0 48 48" width="100%" height="100%">    <path fill="#FEFEFE" d="M0.9,18.4L24,46.7l23.1-28.3V0.9H0.9V18.4z M0.9,18.4"></path>    <path fill="#1A1A1A" d="M0.9,0.9v17.5L24,46.7l23.1-28.3V0.9H0.9z M0.5,18.5V0.6h46.9v18l0,0L24.1,47.1L24,47.2l-0.1-0.2L0.6,18.6        L0.5,18.5L0.5,18.5z M0.5,18.5"></path>    <path fill="#1A1A1A" d="M24,47.8L0.2,18.7V0.2h47.7v18.5l-0.1,0.2L24,47.8z M1.3,18.3L24,46.1l22.7-27.8v-17H1.3V18.3z"></path>    <path fill="#1A1A1A" d="M27.8,17.6v21.1l17.3-21.1H27.8L27.8,17.6z M27.8,17.6"></path>    <path fill="#ED3237" d="M2.9,17.6l17.3,21.1V17.6H2.9L2.9,17.6z M2.9,17.6"></path>    <path fill="#1A1A1A" d="M2.9,2.6v12.7h42.2V2.6H2.9L2.9,2.6z M2.9,2.6"></path>    <path fill="#FEFEFE" d="M43.2,7.7V6.4c0-1-0.8-1.8-1.8-1.8H37c-1,0-1.8,0.8-1.8,1.8v5.3c0,1,0.8,1.8,1.8,1.8h4.5        c1,0,1.8-0.8,1.8-1.8v-1.3h-1.8v0.9c0,0.2-0.2,0.4-0.4,0.4h-3.6c-0.2,0-0.4-0.2-0.4-0.4V6.9c0-0.2,0.2-0.4,0.4-0.4H41        c0.2,0,0.4,0.2,0.4,0.4v0.9H43.2L43.2,7.7z M43.2,7.7"></path>    <path fill="#FEFEFE" d="M4.8,6.4v1.8c0,1,0.8,1.8,1.8,1.8h4c0.2,0,0.4,0.2,0.4,0.4v0.9c0,0.2-0.2,0.4-0.4,0.4H4.8v1.8H11        c1,0,1.8-0.8,1.8-1.8V10c0-1-0.8-1.8-1.8-1.8H7C6.7,8.2,6.6,8,6.6,7.7V6.9c0-0.2,0.2-0.4,0.4-0.4h5.8V4.7H6.6        C5.6,4.7,4.8,5.5,4.8,6.4L4.8,6.4z M4.8,6.4"></path>    <path fill="#FEFEFE" d="M21.2,7.7c0,0.2-0.2,0.4-0.4,0.4h-4V6.4h4c0.2,0,0.4,0.2,0.4,0.4V7.7L21.2,7.7z M21.2,4.7h-6.2v8.8h1.8V10        h4.5c1,0,1.8-0.8,1.8-1.8V6.4C22.9,5.5,22.1,4.7,21.2,4.7L21.2,4.7z M21.2,4.7"></path>    <path fill="#FEFEFE" d="M25.1,13.5h1.8V10h4.5V8.2h-4.5V6.4h6.2V4.7h-8V13.5L25.1,13.5z M25.1,13.5"></path></svg>